<svg xmlns="http://www.w3.org/2000/svg" xmlns:xlink="http://www.w3.org/1999/xlink" width="500" zoomAndPan="magnify" viewBox="0 0 375 374.999991" height="500" preserveAspectRatio="xMidYMid meet" version="1.0"><defs><clipPath id="id1"><path d="M 32.480469 26.105469 L 342.230469 26.105469 L 342.230469 348.605469 L 32.480469 348.605469 Z M 32.480469 26.105469 " clip-rule="nonzero"/></clipPath></defs><path fill="#f8c592" d="M 175.21875 97.085938 C 175.714844 93.496094 176.078125 89.910156 176.492188 86.320312 C 176.742188 84.089844 176.839844 81.839844 177.019531 79.59375 C 177.285156 76.367188 177.582031 73.144531 177.816406 69.917969 C 177.929688 68.199219 178.046875 66.464844 178.164062 64.742188 C 178.34375 61.898438 178.460938 59.054688 178.824219 56.210938 C 178.839844 56.046875 178.824219 55.882812 178.824219 55.714844 C 172.804688 55.566406 166.835938 56.277344 160.917969 57.238281 C 151.871094 58.707031 142.84375 60.296875 134.214844 63.554688 C 132.082031 64.363281 132.082031 64.28125 130.542969 62.480469 C 129.980469 61.816406 129.519531 61.074219 128.859375 60.460938 C 126.757812 58.492188 124.34375 56.957031 121.929688 55.402344 C 117.136719 52.292969 112.140625 49.582031 106.835938 47.449219 C 100.070312 44.71875 93.226562 42.191406 86.28125 39.976562 C 81.6875 38.519531 77.054688 37.164062 72.328125 36.222656 C 63.234375 34.453125 53.992188 34.121094 44.796875 33.609375 C 44.402344 33.59375 43.972656 33.542969 43.609375 33.808594 C 43.691406 34.136719 43.972656 34.304688 44.1875 34.503906 C 47.011719 37.328125 50.105469 39.875 53.296875 42.273438 C 59.992188 47.300781 67.117188 51.714844 74.179688 56.195312 C 84.101562 62.496094 94.019531 68.8125 102.980469 76.484375 C 106.703125 79.660156 110.175781 83.066406 112.820312 87.230469 C 113.8125 88.785156 114.6875 90.40625 115 92.273438 C 115.101562 92.871094 114.984375 93.433594 114.273438 93.53125 C 113.578125 93.628906 113.300781 93.117188 113.214844 92.523438 C 113.101562 91.8125 112.851562 91.148438 112.554688 90.503906 C 111.199219 87.59375 109.230469 85.132812 107.050781 82.816406 C 103.164062 78.699219 98.714844 75.195312 94.183594 71.820312 C 92.316406 70.433594 90.449219 69.011719 88.449219 67.785156 C 88.398438 67.71875 88.332031 67.652344 88.265625 67.769531 C 88.25 67.785156 88.316406 67.851562 88.347656 67.886719 C 89.554688 71.855469 90.515625 75.871094 91.523438 79.890625 C 92.863281 85.199219 94.382812 90.4375 96.597656 95.449219 C 98.285156 99.285156 100.386719 102.839844 103.429688 105.785156 C 104.039062 106.378906 103.90625 107.140625 103.230469 107.371094 C 102.71875 107.550781 102.386719 107.253906 102.070312 106.941406 C 100.253906 105.1875 98.75 103.203125 97.460938 101.039062 C 96.316406 99.136719 95.375 97.136719 94.367188 94.902344 C 94.351562 95.25 94.335938 95.382812 94.335938 95.5 C 94.285156 98.820312 94.234375 102.164062 94.664062 105.46875 C 95.128906 108.941406 96.085938 112.230469 98.171875 115.125 C 98.882812 116.117188 99.675781 117.011719 100.519531 117.886719 C 100.898438 118.285156 100.949219 118.730469 100.566406 119.144531 C 100.1875 119.539062 99.722656 119.507812 99.3125 119.175781 C 99.164062 119.0625 99.03125 118.910156 98.898438 118.78125 C 94.78125 114.695312 93.175781 109.585938 92.699219 103.980469 C 92.464844 101.171875 92.515625 98.359375 92.546875 95.566406 C 92.566406 94.324219 92.632812 93.085938 93.09375 91.910156 C 93.195312 91.664062 93.109375 91.480469 93.042969 91.28125 C 91.40625 86.667969 90.25 81.921875 89.011719 77.210938 C 88.019531 73.390625 87.339844 69.472656 85.472656 65.933594 C 85.273438 65.554688 84.992188 65.355469 84.695312 65.15625 C 77.453125 60.28125 69.980469 55.78125 62.671875 51.003906 C 56.472656 46.953125 50.402344 42.703125 44.898438 37.710938 C 44.070312 36.964844 43.277344 36.1875 42.417969 35.378906 C 42.351562 35.542969 42.300781 35.625 42.300781 35.691406 C 42.21875 36.421875 42.382812 37.113281 42.417969 37.824219 C 42.597656 43.859375 43.175781 49.847656 43.890625 55.847656 C 45.03125 65.539062 47.542969 74.863281 51.148438 83.90625 C 53.082031 88.753906 55.378906 93.398438 57.976562 97.929688 C 61.414062 103.929688 65.117188 109.769531 69.417969 115.191406 C 72.839844 119.507812 76.410156 123.691406 80.695312 127.230469 C 84.546875 130.402344 88.648438 133.230469 92.914062 135.808594 C 96.664062 138.074219 100.484375 140.207031 104.699219 141.53125 C 106.039062 141.945312 106.867188 142.902344 107.675781 143.894531 C 107.890625 144.160156 107.925781 144.492188 107.875 144.839844 C 107.527344 147.898438 107.328125 150.972656 107.429688 154.046875 C 107.546875 157.769531 107.726562 161.472656 108.042969 165.175781 C 108.519531 170.796875 109.429688 176.320312 111.464844 181.613281 C 112.257812 183.679688 113.101562 185.695312 114.507812 187.429688 C 114.507812 186.339844 114.042969 185.363281 113.828125 184.304688 C 112.820312 179.179688 113.746094 174.371094 115.761719 169.625 C 116.703125 167.425781 118.425781 166.019531 120.109375 164.5625 C 123.367188 161.738281 126.757812 159.074219 130.246094 156.527344 C 134.246094 153.617188 138.429688 150.972656 142.714844 148.492188 C 146.78125 146.128906 150.996094 144.042969 154.914062 141.414062 C 159.496094 138.339844 163.101562 134.371094 165.894531 129.644531 C 169.070312 124.285156 170.921875 118.433594 172.375 112.429688 C 173.597656 107.371094 174.492188 102.246094 175.21875 97.085938 Z M 144.761719 76.382812 C 144.730469 75.953125 144.976562 75.691406 145.308594 75.523438 C 145.6875 75.34375 146.003906 75.589844 146.25 75.839844 C 147.410156 77.03125 148.402344 78.335938 149.394531 79.660156 C 150.582031 81.246094 151.691406 82.882812 152.46875 84.71875 C 152.648438 85.164062 152.78125 85.644531 152.929688 86.125 C 153.113281 86.703125 152.863281 87.132812 152.335938 87.296875 C 151.757812 87.460938 151.394531 87.117188 151.226562 86.570312 C 150.730469 84.882812 149.871094 83.394531 148.863281 81.957031 C 147.691406 80.285156 146.398438 78.714844 145.09375 77.160156 C 144.894531 76.929688 144.714844 76.699219 144.761719 76.382812 Z M 140.480469 80.402344 C 140.910156 79.789062 141.523438 79.957031 142.019531 80.285156 C 144.761719 82.15625 147.109375 84.453125 149.011719 87.199219 C 149.144531 87.378906 149.242188 87.578125 149.226562 87.808594 C 149.277344 88.289062 149.011719 88.621094 148.597656 88.769531 C 148.070312 88.949219 147.757812 88.539062 147.539062 88.171875 C 146.679688 86.816406 145.539062 85.695312 144.417969 84.570312 C 143.390625 83.527344 142.25 82.617188 141.042969 81.808594 C 140.546875 81.476562 140 81.0625 140.480469 80.402344 Z M 154.136719 127.839844 C 153.511719 128.847656 152.765625 129.757812 151.855469 130.535156 C 148.417969 133.445312 144.433594 132.667969 141.636719 129.3125 C 139.324219 126.535156 138.214844 123.226562 137.734375 119.722656 C 137.074219 114.894531 137.519531 110.164062 139.589844 105.683594 C 140.398438 103.914062 141.457031 102.3125 143.011719 101.105469 C 146.117188 98.671875 149.558594 98.871094 152.351562 101.699219 C 154.71875 104.097656 155.90625 107.089844 156.636719 110.296875 C 157.066406 112.148438 157.230469 114.050781 157.195312 115.953125 C 157.179688 120.167969 156.386719 124.1875 154.136719 127.839844 Z M 154.136719 127.839844 " fill-opacity="1" fill-rule="nonzero"/><path fill="#f8c592" d="M 333.699219 56.855469 C 332.027344 57.15625 330.324219 57.335938 328.640625 57.566406 C 324.058594 58.230469 319.480469 59.007812 314.949219 59.980469 C 306.433594 61.816406 298.234375 64.5625 290.246094 68.019531 C 287.371094 69.257812 284.542969 70.628906 281.765625 72.070312 C 281.449219 72.234375 281.1875 72.332031 281.5 72.761719 C 281.847656 73.226562 281.582031 73.65625 281.203125 73.988281 C 280.542969 74.550781 280.027344 75.226562 279.566406 75.953125 C 278.359375 77.871094 277.5 79.957031 276.707031 82.074219 C 274.292969 88.421875 272.65625 95.003906 270.621094 101.46875 C 270.503906 101.816406 270.488281 102.046875 270.96875 102.046875 C 271.546875 102.0625 271.761719 102.507812 271.84375 102.988281 C 272.09375 104.609375 272.273438 106.261719 272.390625 107.898438 C 272.570312 110.578125 272.457031 113.222656 272.042969 115.871094 C 271.5625 118.976562 270.605469 121.90625 268.585938 124.402344 C 268.125 124.980469 267.628906 125.542969 267 125.957031 C 266.554688 126.253906 266.089844 126.253906 265.761719 125.789062 C 265.429688 125.34375 265.496094 124.898438 265.910156 124.535156 C 268.007812 122.78125 269.082031 120.449219 269.792969 117.886719 C 270.769531 114.332031 270.738281 110.695312 270.523438 107.074219 C 270.457031 105.882812 270.40625 104.640625 269.992188 103.371094 C 269.546875 104.410156 269.164062 105.335938 268.734375 106.261719 C 267.464844 108.992188 265.890625 111.539062 263.742188 113.703125 C 263.296875 114.148438 262.765625 114.414062 262.238281 113.835938 C 261.726562 113.289062 262.054688 112.828125 262.46875 112.398438 C 264.171875 110.710938 265.445312 108.726562 266.535156 106.609375 C 268.667969 102.507812 269.726562 98.027344 271.066406 93.648438 C 273.117188 86.933594 274.820312 80.089844 278.605469 74.035156 C 278.65625 73.96875 278.773438 73.839844 278.753906 73.820312 C 278.625 73.6875 278.539062 73.804688 278.457031 73.886719 C 278.359375 73.921875 278.242188 73.953125 278.160156 74.003906 C 268.453125 79.542969 259.296875 85.792969 251.855469 94.273438 C 251.34375 94.855469 250.78125 94.9375 250.367188 94.507812 C 249.855469 93.976562 250.136719 93.496094 250.515625 93.050781 C 252.003906 91.265625 253.640625 89.644531 255.34375 88.058594 C 261.710938 82.105469 268.867188 77.226562 276.425781 72.914062 C 291.984375 64 308.699219 58.492188 326.441406 56.046875 C 327.398438 55.914062 328.339844 55.734375 329.285156 55.566406 C 321.398438 53.796875 313.492188 52.375 305.476562 51.632812 C 302.566406 51.367188 299.65625 51.152344 296.726562 51.136719 C 293.867188 51.121094 291.007812 51.417969 288.148438 51.53125 C 280.972656 51.832031 273.828125 52.574219 266.667969 53.351562 C 257.046875 54.394531 247.820312 56.941406 238.808594 60.363281 C 236.824219 61.105469 234.808594 61.769531 232.941406 62.808594 C 232.660156 62.976562 232.476562 62.84375 232.246094 62.761719 C 228.953125 61.554688 225.613281 60.578125 222.191406 59.832031 C 216.605469 58.625 210.980469 57.550781 205.3125 56.726562 C 201.988281 56.246094 198.648438 55.898438 195.292969 55.75 C 195.160156 57.089844 195.457031 58.410156 195.539062 59.75 C 195.605469 60.777344 195.671875 61.835938 195.769531 62.859375 C 196.019531 65.820312 196.117188 68.777344 196.316406 71.738281 C 196.566406 75.261719 196.828125 78.796875 197.144531 82.320312 C 197.441406 85.628906 197.753906 88.917969 198.136719 92.207031 C 199.042969 99.914062 200.285156 107.570312 202.285156 115.074219 C 203.328125 118.960938 204.582031 122.765625 206.351562 126.386719 C 207.875 129.492188 209.757812 132.386719 212.007812 135.066406 C 215.378906 139.066406 219.613281 141.945312 224.128906 144.441406 C 229.980469 147.664062 235.816406 150.921875 241.304688 154.742188 C 245.074219 157.355469 248.730469 160.148438 252.203125 163.140625 C 253.589844 164.347656 255.011719 165.523438 256.417969 166.714844 C 256.914062 167.128906 257.210938 167.6875 257.527344 168.25 C 257.773438 168.679688 257.855469 169.195312 258.285156 169.507812 C 258.335938 169.292969 258.417969 169.09375 258.453125 168.878906 C 259.082031 163.027344 259.574219 157.15625 259.425781 151.269531 C 259.328125 147.300781 259.082031 143.351562 258.519531 139.414062 C 258.484375 139.132812 258.46875 138.835938 258.617188 138.605469 C 259.296875 137.578125 260.054688 136.503906 261.246094 136.207031 C 265.976562 135.015625 270.570312 133.414062 275.167969 131.777344 C 279.402344 130.269531 283.535156 128.5 287.402344 126.21875 C 294.746094 121.90625 301.210938 116.480469 307.09375 110.363281 C 312.203125 105.054688 317.015625 99.515625 320.949219 93.25 C 323.101562 89.84375 325.066406 86.339844 326.6875 82.667969 C 328.492188 78.601562 329.878906 74.402344 331.136719 70.152344 C 332.375 65.949219 333.449219 61.71875 334.195312 57.386719 C 334.34375 56.90625 334.328125 56.742188 333.699219 56.855469 Z M 234.128906 86.253906 C 234.394531 86.835938 234.03125 87.183594 233.550781 87.429688 C 231.832031 88.339844 230.113281 89.28125 228.542969 90.4375 C 228.328125 90.605469 228.113281 90.652344 227.832031 90.652344 C 227.484375 90.6875 227.1875 90.570312 227.019531 90.222656 C 226.839844 89.859375 226.9375 89.53125 227.234375 89.25 C 227.878906 88.585938 228.691406 88.171875 229.449219 87.695312 C 230.507812 87 231.617188 86.40625 232.757812 85.824219 C 233.351562 85.527344 233.847656 85.660156 234.128906 86.253906 Z M 221.929688 87.992188 C 222.953125 86.191406 224.292969 84.617188 225.664062 83.097656 C 227.054688 81.578125 228.558594 80.171875 230.246094 78.980469 C 230.742188 78.632812 231.253906 78.320312 231.863281 78.21875 C 232.277344 78.203125 232.59375 78.367188 232.691406 78.765625 C 232.824219 79.230469 232.707031 79.640625 232.246094 79.890625 C 230.527344 80.800781 229.105469 82.105469 227.78125 83.496094 C 226.175781 85.148438 224.640625 86.867188 223.515625 88.902344 C 223.234375 89.414062 222.886719 89.859375 222.226562 89.578125 C 221.664062 89.332031 221.546875 88.652344 221.929688 87.992188 Z M 232.824219 127.839844 C 232.164062 128.914062 231.367188 129.90625 230.34375 130.683594 C 227.234375 133.050781 223.828125 132.851562 221.050781 130.089844 C 218.917969 127.972656 217.710938 125.328125 217 122.449219 C 215.578125 116.710938 215.859375 111.089844 218.289062 105.667969 C 219.085938 103.898438 220.160156 102.292969 221.714844 101.085938 C 224.820312 98.65625 228.277344 98.871094 231.054688 101.683594 C 233.453125 104.097656 234.625 107.121094 235.355469 110.363281 C 235.765625 112.199219 235.898438 114.066406 235.898438 115.9375 C 235.898438 120.167969 235.089844 124.203125 232.824219 127.839844 Z M 232.824219 127.839844 " fill-opacity="1" fill-rule="nonzero"/><path fill="#f8c592" d="M 154.699219 281.945312 C 151.90625 280.007812 148.796875 278.636719 145.789062 277.117188 C 141.125 274.75 136.710938 272.074219 133.023438 268.304688 C 131.089844 266.320312 129.15625 264.316406 127.285156 262.25 C 125.085938 259.820312 122.988281 257.308594 121.269531 254.53125 C 120.308594 252.976562 119.332031 251.355469 119.464844 249.402344 C 119.546875 248.214844 119.929688 247.089844 120.441406 246.03125 C 121.683594 243.46875 123.320312 241.234375 125.699219 239.597656 C 126.675781 238.9375 127.632812 238.9375 128.609375 239.597656 C 129.699219 240.308594 130.660156 241.167969 131.585938 242.078125 C 132.460938 242.957031 133.371094 243.796875 134.363281 244.542969 C 135.089844 245.089844 135.902344 245.371094 136.726562 244.855469 C 137.570312 244.328125 137.585938 243.417969 137.457031 242.558594 C 137.289062 241.566406 137.058594 240.574219 136.792969 239.597656 C 135.570312 235.21875 134.230469 230.851562 133.089844 226.453125 C 131.980469 222.1875 130.992188 217.886719 130.675781 213.457031 C 130.542969 211.65625 130.429688 209.835938 130.460938 208.035156 C 130.496094 206.398438 130.378906 204.726562 130.726562 203.105469 C 130.726562 202.777344 130.726562 202.445312 130.726562 202.097656 C 130.609375 202.015625 130.511719 201.914062 130.394531 201.851562 C 127.1875 200.046875 124.03125 198.164062 121.070312 195.964844 C 118.773438 194.261719 116.457031 192.574219 115.480469 189.679688 C 113.199219 192.972656 111.214844 196.425781 109.3125 199.933594 C 106.769531 204.628906 104.898438 209.636719 102.933594 214.597656 C 102.054688 216.8125 101.082031 219.011719 100.484375 221.3125 C 99.328125 225.824219 98.699219 230.453125 98.070312 235.085938 C 97.359375 240.261719 97.160156 245.453125 97.195312 250.644531 C 97.210938 254.511719 97.441406 258.398438 97.921875 262.25 C 98.453125 266.402344 99.179688 270.484375 100.238281 274.535156 C 100.847656 276.867188 101.59375 279.167969 102.4375 281.429688 C 102.734375 282.226562 102.46875 282.886719 101.808594 283.152344 C 101.128906 283.433594 100.5 283.117188 100.152344 282.339844 C 100.070312 282.140625 100.003906 281.925781 99.921875 281.730469 C 97.574219 275.414062 96.21875 268.882812 95.441406 262.203125 C 94.878906 257.441406 94.664062 252.660156 94.714844 247.867188 C 94.78125 242.308594 95.277344 236.789062 96.101562 231.28125 C 96.929688 225.742188 98.019531 220.253906 99.574219 214.878906 C 99.921875 213.6875 100.269531 212.480469 100.632812 211.242188 C 100.238281 211.308594 100.054688 211.523438 99.839844 211.6875 C 97.9375 213.191406 96.253906 214.929688 94.550781 216.664062 C 90.5 220.832031 86.878906 225.296875 83.820312 230.238281 C 81.867188 233.398438 79.964844 236.605469 78.527344 240.046875 C 78 241.300781 77.402344 242.476562 76.445312 243.449219 C 77.007812 244.460938 77.898438 245.21875 78.59375 246.128906 C 82.183594 250.808594 84.925781 255.96875 87.339844 261.308594 C 88.992188 264.960938 90.464844 268.683594 91.6875 272.519531 C 92.929688 276.421875 93.753906 280.40625 94.335938 284.457031 C 94.550781 285.996094 94.8125 287.550781 94.847656 289.101562 C 95.375 288.871094 95.9375 288.789062 96.515625 288.757812 C 99.691406 288.492188 102.898438 288.558594 106.039062 287.980469 C 106.222656 287.945312 106.421875 287.894531 106.585938 288.046875 C 107.460938 288.773438 108.320312 289.484375 108.800781 290.558594 C 110.15625 293.566406 111.546875 296.5625 113.300781 299.355469 C 115.464844 299.816406 117.597656 300.378906 119.714844 301.089844 C 123.714844 302.414062 127.847656 303.339844 132.015625 304.035156 C 135.984375 304.695312 139.953125 305.324219 144.003906 305.140625 C 145.34375 305.074219 146.679688 304.976562 147.953125 304.464844 C 150.21875 303.554688 152.070312 302.035156 153.675781 300.246094 C 156.089844 297.550781 157.957031 294.527344 158.71875 290.9375 C 159.179688 288.773438 159.148438 286.6875 157.808594 284.789062 C 157 283.53125 155.839844 282.753906 154.699219 281.945312 Z M 154.699219 281.945312 " fill-opacity="1" fill-rule="nonzero"/><path fill="#f8c592" d="M 285.484375 237.679688 C 283.253906 233.117188 280.507812 228.867188 277.53125 224.75 C 276.988281 224.007812 276.523438 223.195312 275.730469 222.535156 C 275.730469 222.800781 275.695312 222.964844 275.730469 223.113281 C 276.671875 227.609375 277.203125 232.15625 277.746094 236.703125 C 278.292969 241.382812 278.574219 246.082031 278.65625 250.777344 C 278.722656 254.660156 278.523438 258.546875 278.324219 262.417969 C 278.175781 265.046875 277.945312 267.691406 277.648438 270.304688 C 277.285156 273.542969 276.835938 276.785156 276.359375 280.007812 C 276.078125 281.925781 275.695312 283.84375 275.332031 285.761719 C 275.167969 286.625 274.621094 287.019531 273.894531 286.90625 C 273.183594 286.804688 272.835938 286.242188 272.917969 285.351562 C 272.9375 285.183594 272.96875 285.019531 273 284.855469 C 273.199219 283.796875 273.398438 282.753906 273.597656 281.695312 C 274.242188 278.042969 274.738281 274.371094 275.132812 270.683594 C 275.480469 267.492188 275.746094 264.285156 275.945312 261.078125 C 276.078125 259.011719 276.078125 256.945312 276.175781 254.894531 C 276.359375 251.386719 276.125 247.898438 275.996094 244.410156 C 275.878906 241.632812 275.546875 238.871094 275.25 236.125 C 275.019531 233.992188 274.917969 231.84375 274.359375 229.777344 C 273.746094 227.480469 272.984375 225.214844 272.242188 222.929688 C 271.382812 220.285156 270.242188 217.757812 269.296875 215.160156 C 268.257812 212.285156 267.164062 209.4375 265.824219 206.695312 C 263.675781 202.230469 261.128906 197.964844 258.5 193.78125 C 257.195312 191.714844 255.90625 189.628906 254.433594 187.679688 C 254.070312 187.863281 253.9375 188.242188 253.691406 188.539062 C 252.929688 189.464844 252.183594 190.390625 251.441406 191.316406 C 251.492188 191.765625 251.558594 192.210938 251.605469 192.65625 C 251.671875 193.203125 251.722656 193.746094 251.789062 194.292969 C 252.003906 196.3125 252.152344 198.328125 252.335938 200.34375 C 252.582031 203.140625 252.699219 205.933594 252.714844 208.726562 C 252.714844 210.332031 252.648438 211.953125 252.5 213.574219 C 252.183594 217.078125 251.492188 220.515625 250.699219 223.921875 C 249.523438 228.917969 247.96875 233.8125 246.597656 238.753906 C 246.199219 240.175781 245.785156 241.617188 245.671875 243.085938 C 245.621094 243.816406 245.820312 244.476562 246.496094 244.855469 C 247.160156 245.21875 247.835938 245.121094 248.449219 244.722656 C 248.8125 244.492188 249.175781 244.226562 249.507812 243.929688 C 250.8125 242.757812 252.101562 241.550781 253.410156 240.375 C 255.328125 238.671875 256.386719 238.671875 258.320312 240.210938 C 260.253906 241.765625 261.609375 243.75 262.699219 245.914062 C 263.957031 248.378906 264.089844 250.859375 262.617188 253.289062 C 261.941406 254.414062 261.246094 255.539062 260.46875 256.613281 C 257.164062 261.125 253.308594 265.175781 249.308594 269.0625 C 247.671875 270.652344 245.933594 272.140625 244 273.378906 C 239.238281 276.421875 234.015625 278.585938 229.136719 281.429688 C 228.011719 282.339844 226.738281 283.050781 225.78125 284.175781 C 224.804688 285.300781 224.292969 286.589844 224.160156 288.046875 C 224.109375 289.714844 224.425781 291.335938 225.003906 292.890625 C 226.441406 296.757812 228.839844 299.933594 232.03125 302.5625 C 234.558594 304.644531 237.535156 305.207031 240.578125 305.140625 C 243.488281 305.074219 246.414062 304.730469 249.308594 304.25 C 254.402344 303.40625 259.425781 302.332031 264.339844 300.695312 C 265.378906 300.347656 266.320312 299.769531 267.429688 299.570312 C 268.472656 297.386719 269.378906 295.136719 270.15625 292.855469 C 270.652344 291.417969 271.347656 290.160156 272.570312 289.21875 C 272.886719 288.972656 273.199219 288.824219 273.613281 288.824219 C 274.621094 288.789062 275.648438 288.789062 276.65625 288.625 C 277.234375 288.523438 277.664062 288.605469 278.09375 288.988281 C 278.277344 285.730469 278.839844 282.507812 279.484375 279.316406 C 280.871094 272.519531 283.402344 266.121094 286.296875 259.835938 C 287.71875 256.761719 289.320312 253.785156 291.089844 250.890625 C 291.207031 250.710938 291.253906 250.496094 291.339844 250.28125 C 290.675781 249.484375 289.949219 248.773438 289.601562 247.734375 C 288.394531 244.34375 287.074219 240.953125 285.484375 237.679688 Z M 285.484375 237.679688 " fill-opacity="1" fill-rule="nonzero"/><path fill="#f8c592" d="M 198.167969 224.734375 C 196.332031 222.5 194.21875 220.683594 191.539062 219.492188 C 188.414062 218.101562 185.1875 217.789062 181.882812 218.367188 C 177.796875 219.078125 174.507812 221.246094 171.863281 224.402344 C 168.789062 228.519531 167.679688 233.101562 168.738281 238.128906 C 169.582031 242.128906 171.714844 245.351562 174.953125 247.832031 C 177.070312 249.453125 179.46875 250.414062 182.046875 250.957031 C 182.410156 251.039062 182.773438 251.105469 182.792969 250.527344 C 182.824219 249.683594 182.90625 248.824219 182.925781 247.980469 C 182.941406 245.75 182.890625 243.515625 182.957031 241.285156 C 182.988281 240.308594 182.773438 239.582031 182.03125 238.886719 C 180.941406 237.894531 180.792969 236.042969 181.46875 234.605469 C 182.195312 233.019531 183.867188 232.308594 185.121094 232.371094 C 186.660156 232.457031 187.933594 233.183594 188.578125 234.65625 C 189.207031 236.09375 189.089844 237.5 188.132812 238.789062 C 187.949219 239.035156 187.753906 239.234375 187.734375 239.566406 C 187.703125 240.738281 187.636719 241.929688 187.585938 243.105469 C 187.519531 245.417969 187.652344 247.71875 187.71875 250.03125 C 187.734375 250.757812 187.902344 250.925781 188.628906 250.742188 C 192.578125 249.765625 195.753906 247.617188 198.203125 244.394531 C 200.464844 241.402344 201.523438 237.945312 201.441406 234.226562 C 201.359375 230.753906 200.25 227.5625 198.167969 224.734375 Z M 198.167969 224.734375 " fill-opacity="1" fill-rule="nonzero"/><path fill="#e6ded4" d="M 165.613281 293.699219 C 166.09375 294.328125 166.523438 295.136719 167.546875 295.007812 C 168.027344 294.277344 168.65625 293.699219 169.300781 293.121094 C 169.613281 292.839844 169.878906 292.808594 170.226562 293.003906 C 170.191406 292.460938 170.09375 291.929688 169.78125 291.453125 C 167.8125 288.410156 165.546875 285.582031 163.414062 282.671875 C 159.113281 276.816406 154.652344 271.082031 150.847656 264.863281 C 150.136719 263.707031 148.898438 263.324219 147.804688 263.886719 C 146.613281 264.5 146.117188 265.855469 146.699219 267.113281 C 147.011719 267.773438 147.390625 268.417969 147.804688 269.046875 C 151.410156 274.585938 155.378906 279.878906 159.3125 285.183594 C 161.429688 288.011719 163.496094 290.871094 165.613281 293.699219 Z M 165.613281 293.699219 " fill-opacity="1" fill-rule="nonzero"/><path fill="#e6ded4" d="M 213.527344 312.300781 C 212.503906 312.101562 211.742188 312.699219 211.132812 313.425781 C 210.402344 314.285156 209.875 315.292969 209.328125 316.269531 C 206.535156 321.347656 204.601562 326.652344 204.765625 332.558594 C 204.78125 332.921875 204.898438 333.332031 204.632812 333.664062 C 204.75 333.914062 204.863281 334.160156 204.996094 334.390625 C 206.1875 336.226562 208.171875 336.972656 210.007812 337.914062 C 210.15625 337.1875 209.90625 336.492188 209.824219 335.796875 C 209.527344 333.449219 209.363281 331.085938 209.757812 328.753906 C 210.550781 324.238281 212.238281 320.074219 214.917969 316.304688 C 216.074219 314.714844 215.363281 312.648438 213.527344 312.300781 Z M 213.527344 312.300781 " fill-opacity="1" fill-rule="nonzero"/><path fill="#e6ded4" d="M 181.136719 336.261719 C 181.136719 333.136719 180.179688 330.257812 178.839844 327.496094 C 177.085938 323.875 174.671875 320.652344 172.6875 317.164062 C 172.210938 316.335938 170.96875 315.875 170.191406 316.105469 C 168.722656 316.550781 167.597656 317.957031 168.820312 319.941406 C 170.40625 322.535156 172.0625 325.117188 173.582031 327.746094 C 175.285156 330.703125 176.523438 333.828125 176.34375 337.351562 C 176.308594 337.980469 176.375 338.609375 176.394531 339.253906 C 178.128906 338.65625 179.78125 337.847656 181.320312 336.855469 C 181.121094 336.707031 181.136719 336.476562 181.136719 336.261719 Z M 181.136719 336.261719 " fill-opacity="1" fill-rule="nonzero"/><path fill="#e6ded4" d="M 168.40625 340.574219 C 166.554688 338.90625 164.636719 337.320312 162.949219 335.464844 C 160.601562 332.886719 158.933594 329.925781 157.675781 326.703125 C 157.214844 325.53125 156.898438 324.304688 156.484375 323.117188 C 156.054688 321.859375 154.46875 320.800781 153.128906 321.675781 C 152.152344 322.320312 151.640625 323.460938 151.972656 324.621094 C 153.59375 330.308594 156.105469 335.484375 160.386719 339.683594 C 160.785156 340.078125 161.347656 340.359375 161.460938 340.988281 C 163.875 341.402344 166.308594 341.617188 168.738281 341.121094 C 168.738281 340.875 168.574219 340.726562 168.40625 340.574219 Z M 168.40625 340.574219 " fill-opacity="1" fill-rule="nonzero"/><path fill="#e6ded4" d="M 224.292969 323.875 C 222.65625 325.59375 221.746094 327.777344 220.835938 329.925781 C 219.429688 333.300781 218.902344 336.972656 217.347656 340.292969 C 219.035156 340.660156 220.753906 340.808594 222.488281 340.757812 C 222.554688 339.78125 223.070312 338.9375 223.316406 338.011719 C 224.390625 334.09375 225.449219 330.160156 227.898438 326.785156 C 228.277344 326.273438 228.558594 325.644531 228.359375 324.933594 C 227.832031 323.117188 225.613281 322.488281 224.292969 323.875 Z M 224.292969 323.875 " fill-opacity="1" fill-rule="nonzero"/><path fill="#e6ded4" d="M 251.390625 191.316406 C 251.0625 191.351562 250.878906 191.613281 250.664062 191.828125 C 248.761719 193.832031 246.546875 195.46875 244.296875 197.039062 C 240.066406 199.980469 235.585938 202.476562 230.871094 204.578125 C 226.144531 206.679688 221.265625 208.363281 216.273438 209.6875 C 209.992188 211.339844 203.625 212.515625 197.160156 213.191406 C 193.886719 213.523438 190.597656 213.722656 187.320312 213.789062 C 182 213.902344 176.65625 213.835938 171.351562 213.339844 C 168.820312 213.109375 166.289062 212.84375 163.777344 212.449219 C 158.933594 211.6875 154.136719 210.679688 149.425781 209.355469 C 144.152344 207.867188 139.007812 206.03125 134.066406 203.667969 C 132.957031 203.140625 131.882812 202.496094 130.726562 202.066406 C 130.726562 202.394531 130.726562 202.726562 130.726562 203.074219 C 131.503906 203.835938 132.246094 204.644531 133.058594 205.371094 C 135.453125 207.519531 137.96875 209.503906 140.613281 211.308594 C 145.988281 214.976562 151.625 218.136719 157.691406 220.5 C 158.320312 220.75 158.933594 221.230469 159.609375 221.144531 C 160.371094 221.046875 160.949219 221.292969 161.527344 221.691406 C 162.074219 222.070312 162.652344 222.371094 163.296875 222.550781 C 166.125 223.328125 168.984375 223.90625 171.878906 224.402344 C 174.523438 221.230469 177.816406 219.078125 181.898438 218.367188 C 185.1875 217.789062 188.429688 218.101562 191.554688 219.492188 C 194.234375 220.683594 196.351562 222.519531 198.183594 224.734375 C 198.300781 224.683594 198.417969 224.585938 198.546875 224.570312 C 203.210938 223.609375 207.875 222.617188 212.453125 221.246094 C 215.332031 220.386719 218.289062 219.789062 220.9375 218.1875 C 225.234375 215.589844 229.484375 212.894531 233.550781 209.953125 C 236.59375 207.753906 239.554688 205.4375 242.332031 202.890625 C 244.414062 200.972656 246.398438 198.972656 248.25 196.824219 C 249.40625 195.46875 250.417969 194.011719 251.605469 192.671875 C 251.507812 192.210938 251.441406 191.765625 251.390625 191.316406 Z M 251.390625 191.316406 " fill-opacity="1" fill-rule="nonzero"/><path fill="#e6ded4" d="M 237.933594 262.996094 C 236.941406 262.8125 236.128906 263.292969 235.570312 264.035156 C 233.699219 266.566406 231.898438 269.164062 230.046875 271.726562 C 227.035156 275.875 223.996094 280.007812 221.003906 284.160156 C 220.058594 285.464844 219 286.707031 218.222656 288.128906 C 217.578125 289.320312 217.878906 290.425781 218.96875 291.238281 C 219.878906 291.914062 220.96875 291.734375 221.929688 290.839844 C 222.789062 290.03125 223.265625 288.90625 224.109375 288.078125 C 224.242188 286.625 224.753906 285.332031 225.730469 284.210938 C 226.707031 283.101562 227.964844 282.375 229.085938 281.464844 C 228.890625 281.199219 229.1875 281.050781 229.285156 280.917969 C 230.789062 278.820312 232.3125 276.734375 233.816406 274.652344 C 235.683594 272.074219 237.585938 269.527344 239.339844 266.878906 C 239.6875 266.351562 240.03125 265.804688 239.964844 265.144531 C 239.851562 264.121094 238.992188 263.195312 237.933594 262.996094 Z M 237.933594 262.996094 " fill-opacity="1" fill-rule="nonzero"/><g clip-path="url(#id1)"><path fill="#703a44" d="M 266.503906 141.878906 C 269.214844 140.984375 271.910156 140.011719 274.640625 139.117188 C 281.964844 136.734375 288.59375 133 294.894531 128.683594 C 301.65625 124.054688 307.789062 118.613281 313.363281 112.59375 C 319.050781 106.460938 323.960938 99.730469 328.472656 92.6875 C 330.773438 89.101562 332.773438 85.3125 334.425781 81.378906 C 336.328125 76.816406 337.75 72.101562 339.121094 67.375 C 340.410156 62.925781 341.1875 58.378906 341.964844 53.816406 C 342.230469 52.308594 341.851562 51.617188 340.394531 51.070312 C 338.113281 50.210938 335.714844 49.746094 333.335938 49.234375 C 326.523438 47.746094 319.695312 46.421875 312.800781 45.414062 C 306.878906 44.554688 300.910156 44.074219 294.925781 44.207031 C 285.882812 44.40625 276.886719 45.152344 267.894531 46.125 C 257.9375 47.199219 248.347656 49.648438 239.023438 53.21875 C 236.992188 53.996094 234.921875 54.675781 233.003906 55.714844 C 232.789062 55.832031 232.609375 55.800781 232.394531 55.734375 C 228.242188 54.226562 223.996094 53.085938 219.679688 52.210938 C 214.125 51.085938 208.535156 50.0625 202.914062 49.316406 C 198.894531 48.789062 194.84375 48.621094 190.792969 48.574219 C 182.808594 48.492188 174.804688 48.324219 166.851562 49.300781 C 160.207031 50.109375 153.625 51.316406 147.078125 52.691406 C 142.480469 53.648438 138.015625 55.003906 133.636719 56.691406 C 132.726562 57.039062 132.246094 56.890625 131.601562 56.246094 C 129.171875 53.730469 126.707031 51.25 123.664062 49.449219 C 123.105469 49.117188 122.542969 48.753906 121.996094 48.390625 C 117.167969 45.234375 112.125 42.503906 106.769531 40.355469 C 101.195312 38.105469 95.589844 36.007812 89.886719 34.105469 C 84.316406 32.238281 78.726562 30.484375 72.972656 29.308594 C 63.332031 27.292969 53.527344 26.929688 43.738281 26.484375 C 42.53125 26.433594 41.292969 26.566406 40.101562 26.152344 C 39.390625 26.152344 38.664062 26.152344 37.953125 26.152344 C 37.902344 26.203125 37.855469 26.285156 37.789062 26.300781 C 35.6875 26.878906 35.375 27.324219 35.160156 29.988281 C 34.894531 33.296875 35.242188 36.601562 35.375 39.890625 C 35.671875 47.515625 36.449219 55.105469 37.789062 62.628906 C 38.996094 69.488281 41.027344 76.101562 43.523438 82.601562 C 44.832031 86.023438 46.285156 89.378906 47.988281 92.636719 C 54.421875 104.988281 62.109375 116.429688 72.160156 126.203125 C 76.046875 129.988281 79.816406 133.890625 84.214844 137.117188 C 89.109375 140.703125 94.21875 143.929688 99.675781 146.609375 C 100.320312 146.921875 100.535156 147.269531 100.46875 147.980469 C 100.320312 149.617188 100.152344 151.285156 100.203125 152.921875 C 100.253906 155.121094 100.371094 157.320312 100.484375 159.519531 C 100.734375 163.753906 101.046875 167.988281 101.757812 172.171875 C 102.503906 176.566406 103.757812 180.800781 105.710938 184.820312 C 106.355469 186.160156 107.214844 187.382812 108.105469 188.574219 C 108.488281 189.070312 108.472656 189.433594 108.125 189.960938 C 105.179688 194.425781 102.519531 199.054688 100.203125 203.867188 C 100.054688 204.164062 99.921875 204.445312 99.660156 204.675781 C 95.375 208.332031 91.554688 212.464844 87.621094 216.464844 C 83.867188 220.285156 80.414062 224.355469 77.535156 228.882812 C 76.3125 230.820312 75.070312 232.738281 74.03125 234.769531 C 73.699219 235.433594 73.519531 235.597656 72.855469 235.050781 C 68.375 231.382812 63.464844 228.421875 57.976562 226.503906 C 54.867188 225.429688 51.824219 225.261719 48.519531 226.105469 C 41.109375 227.992188 36.515625 232.71875 33.738281 239.566406 C 32.894531 241.632812 32.976562 243.882812 32.644531 246.03125 C 32.613281 246.261719 32.746094 246.527344 32.480469 246.707031 C 32.480469 248.363281 32.480469 250.015625 32.480469 251.667969 C 32.777344 252.925781 32.777344 254.214844 32.960938 255.472656 C 34.082031 263.359375 36.066406 270.996094 39.34375 278.289062 C 42.1875 284.605469 46.039062 290.226562 50.980469 295.089844 C 54.488281 298.5625 57.828125 302.199219 61.894531 305.042969 C 64.324219 306.746094 66.804688 308.398438 69.550781 309.589844 C 73.054688 311.109375 76.707031 311.359375 80.460938 310.8125 C 83.902344 310.300781 86.910156 308.847656 89.835938 307.09375 C 90.21875 306.878906 90.546875 306.5625 90.84375 306.25 C 92.863281 304.25 94.832031 302.214844 96.878906 300.246094 C 98.105469 299.074219 98.980469 297.703125 99.558594 296.128906 C 99.691406 295.765625 99.855469 295.617188 100.253906 295.601562 C 101.359375 295.550781 102.453125 295.46875 103.542969 295.371094 C 103.925781 295.335938 104.074219 295.484375 104.238281 295.785156 C 110.421875 307.40625 118.277344 317.824219 127.1875 327.464844 C 130.691406 331.25 134.347656 334.9375 138.347656 338.246094 C 143.191406 342.230469 148.714844 344.84375 154.683594 346.628906 C 157.726562 347.535156 160.835938 348.148438 163.992188 348.398438 C 164.140625 348.414062 164.339844 348.363281 164.421875 348.5625 C 165.132812 348.5625 165.859375 348.5625 166.570312 348.5625 C 166.6875 348.398438 166.851562 348.429688 167.019531 348.414062 C 170.722656 348.117188 174.308594 347.304688 177.730469 345.835938 C 179.535156 345.058594 181.351562 344.261719 182.792969 342.90625 C 185.1875 340.640625 187.535156 338.292969 189.800781 335.898438 C 191.242188 334.375 191.886719 332.390625 191.769531 330.359375 C 191.589844 327.234375 190.628906 324.238281 189.605469 321.3125 C 187.902344 316.433594 185.46875 311.90625 182.839844 307.472656 C 182.195312 306.382812 181.566406 305.289062 180.875 304.132812 C 185.007812 304.8125 188.976562 305.507812 193.058594 305.175781 C 197.078125 304.84375 201.09375 304.578125 205.164062 303.851562 C 204.105469 306.050781 203.128906 308.117188 202.136719 310.167969 C 199.953125 314.667969 198.183594 319.328125 197.210938 324.238281 C 196.714844 326.703125 196.085938 329.167969 196.746094 331.730469 C 197.144531 333.25 197.820312 334.605469 198.945312 335.730469 C 200.664062 337.449219 202.433594 339.105469 204.070312 340.890625 C 206.039062 343.039062 208.453125 344.460938 211.097656 345.554688 C 215.84375 347.503906 220.753906 348.414062 225.878906 347.585938 C 228.871094 347.105469 231.800781 346.3125 234.644531 345.222656 C 238.179688 343.867188 241.570312 342.195312 244.496094 339.75 C 248.960938 336.011719 253.109375 331.910156 256.832031 327.449219 C 263.777344 319.128906 269.480469 309.988281 274.226562 300.230469 C 274.390625 299.882812 274.40625 299.4375 274.703125 299.207031 C 276.820312 301.304688 278.9375 303.355469 281.003906 305.457031 C 281.980469 306.449219 283.019531 307.308594 284.226562 308.003906 C 289.054688 310.746094 294.183594 311.9375 299.703125 310.878906 C 303.042969 310.234375 305.90625 308.5 308.714844 306.730469 C 314.535156 303.058594 319.214844 298.082031 323.859375 293.121094 C 329.714844 286.90625 333.582031 279.480469 336.210938 271.394531 C 337.832031 266.417969 339.054688 261.324219 339.765625 256.132812 C 340.277344 252.414062 340.558594 248.675781 339.964844 244.9375 C 339.601562 242.574219 338.890625 240.292969 338.113281 238.027344 C 335.914062 231.660156 331.53125 227.59375 325.019531 225.808594 C 323.878906 225.496094 322.703125 225.875 321.5625 225.691406 C 320.089844 225.460938 318.652344 225.660156 317.230469 226.007812 C 311.59375 227.378906 306.683594 230.238281 302.019531 233.5625 C 299.308594 235.496094 297.007812 237.863281 294.679688 240.210938 C 294 240.886719 294 240.886719 293.636719 240.046875 C 292.050781 236.488281 290.132812 233.132812 288.0625 229.828125 C 285.039062 225 281.484375 220.601562 277.464844 216.550781 C 276.953125 216.019531 276.425781 215.492188 276.175781 214.761719 C 273.925781 208.117188 270.554688 202.03125 266.933594 196.078125 C 264.964844 192.839844 262.851562 189.679688 260.734375 186.523438 C 260.503906 186.175781 260.484375 185.945312 260.71875 185.5625 C 261.859375 183.59375 262.601562 181.460938 263.328125 179.328125 C 264.734375 175.144531 265.429688 170.832031 265.824219 166.464844 C 266.289062 161.472656 266.652344 156.480469 266.554688 151.46875 C 266.488281 148.527344 266.289062 145.582031 266.007812 142.640625 C 266.023438 142.242188 266.039062 142.027344 266.503906 141.878906 Z M 261.296875 136.222656 C 260.105469 136.519531 259.34375 137.597656 258.667969 138.621094 C 258.519531 138.851562 258.535156 139.132812 258.566406 139.429688 C 259.128906 143.367188 259.378906 147.320312 259.476562 151.285156 C 259.625 157.171875 259.128906 163.042969 258.5 168.894531 C 258.484375 169.109375 258.402344 169.324219 258.335938 169.542969 C 258.152344 172.105469 257.640625 174.585938 256.929688 177.046875 C 256.070312 180.058594 255.144531 183.050781 253.542969 185.761719 C 253.390625 186.027344 253.457031 186.222656 253.605469 186.441406 C 253.871094 186.851562 254.121094 187.28125 254.367188 187.695312 C 255.839844 189.648438 257.144531 191.730469 258.433594 193.796875 C 261.082031 197.996094 263.609375 202.246094 265.761719 206.710938 C 267.082031 209.457031 268.175781 212.300781 269.230469 215.175781 C 270.175781 217.773438 271.316406 220.320312 272.175781 222.949219 C 272.917969 225.214844 273.679688 227.480469 274.292969 229.792969 C 274.835938 231.859375 274.953125 234.027344 275.183594 236.144531 C 275.480469 238.902344 275.828125 241.664062 275.929688 244.425781 C 276.078125 247.914062 276.292969 251.421875 276.109375 254.910156 C 276.011719 256.976562 276.011719 259.042969 275.878906 261.09375 C 275.664062 264.300781 275.414062 267.507812 275.070312 270.699219 C 274.671875 274.386719 274.175781 278.058594 273.53125 281.710938 C 273.347656 282.769531 273.132812 283.8125 272.9375 284.871094 C 272.902344 285.035156 272.871094 285.203125 272.851562 285.367188 C 272.769531 286.257812 273.117188 286.804688 273.828125 286.921875 C 274.554688 287.035156 275.101562 286.640625 275.265625 285.78125 C 275.628906 283.863281 276.011719 281.960938 276.292969 280.027344 C 276.773438 276.800781 277.21875 273.5625 277.582031 270.320312 C 277.878906 267.691406 278.109375 265.0625 278.257812 262.433594 C 278.476562 258.5625 278.65625 254.679688 278.589844 250.792969 C 278.507812 246.082031 278.226562 241.402344 277.679688 236.722656 C 277.152344 232.175781 276.621094 227.609375 275.664062 223.128906 C 275.628906 222.980469 275.664062 222.816406 275.664062 222.550781 C 276.457031 223.210938 276.9375 224.023438 277.464844 224.765625 C 280.425781 228.882812 283.1875 233.132812 285.417969 237.695312 C 287.023438 240.953125 288.328125 244.359375 289.46875 247.800781 C 289.816406 248.859375 290.5625 249.550781 291.207031 250.347656 C 291.816406 250.957031 292.3125 250.808594 292.875 250.214844 C 293.601562 249.453125 294.347656 248.710938 294.925781 247.832031 C 297.007812 244.640625 299.820312 242.195312 302.910156 240.027344 C 305.972656 237.878906 309.195312 236.078125 312.632812 234.605469 C 314.980469 233.597656 317.394531 232.804688 319.957031 232.703125 C 322.738281 232.585938 325.183594 233.613281 327.433594 235.183594 C 329.699219 236.769531 330.804688 239.183594 331.929688 241.582031 C 332.707031 243.253906 333.019531 245.039062 333.039062 246.875 C 333.351562 249.007812 333.085938 251.140625 332.972656 253.273438 C 332.390625 259.472656 331.003906 265.492188 329.085938 271.394531 C 326.488281 279.363281 322.621094 286.625 316.984375 292.875 C 314.816406 295.269531 312.222656 297.1875 309.558594 299.007812 C 307.242188 300.59375 304.863281 302.101562 302.199219 303.042969 C 297.273438 304.761719 292.414062 304.414062 287.617188 302.53125 C 286.210938 301.96875 284.875 301.273438 283.566406 300.496094 C 281.085938 299.023438 280.242188 296.59375 279.796875 293.964844 C 279.730469 293.585938 279.714844 293.1875 279.746094 292.808594 C 279.898438 291.1875 279.285156 289.929688 277.960938 289.003906 C 277.546875 288.640625 277.117188 288.558594 276.523438 288.640625 C 275.53125 288.804688 274.507812 288.804688 273.480469 288.839844 C 273.066406 288.855469 272.753906 288.988281 272.441406 289.234375 C 271.234375 290.179688 270.523438 291.433594 270.027344 292.875 C 269.25 295.15625 268.355469 297.402344 267.296875 299.585938 C 266.140625 302.183594 264.882812 304.710938 263.476562 307.175781 C 259.988281 313.226562 256.234375 319.128906 251.953125 324.667969 C 249.425781 327.945312 246.761719 331.085938 243.339844 333.484375 C 239.46875 336.195312 235.222656 338.097656 230.691406 339.367188 C 227.980469 340.128906 225.234375 340.675781 222.40625 340.726562 C 220.671875 340.773438 218.96875 340.625 217.265625 340.261719 C 214.71875 339.78125 212.273438 339.003906 209.941406 337.878906 C 208.105469 336.9375 206.121094 336.210938 204.929688 334.359375 C 204.78125 334.128906 204.683594 333.878906 204.566406 333.632812 C 203.425781 331.53125 203.394531 329.300781 203.757812 327 C 204.550781 321.859375 206.121094 316.949219 208.238281 312.203125 C 210.785156 306.496094 213.609375 300.925781 217 295.667969 C 217.414062 295.023438 217.496094 294.511719 216.851562 294.015625 C 216.785156 293.964844 216.734375 293.898438 216.6875 293.832031 C 215.511719 292.542969 215.480469 292.527344 214.023438 293.371094 C 210.765625 295.269531 207.230469 296.34375 203.542969 296.941406 C 199.738281 297.550781 195.886719 297.964844 192.050781 298.046875 C 185.570312 298.179688 179.238281 297.140625 173.234375 294.527344 C 172.175781 294.0625 171.101562 293.652344 170.160156 292.957031 C 169.8125 292.757812 169.546875 292.789062 169.234375 293.070312 C 168.589844 293.652344 167.960938 294.230469 167.480469 294.957031 C 171.863281 300.808594 175.683594 306.992188 179.039062 313.476562 C 181.417969 318.054688 183.207031 322.851562 184.296875 327.925781 C 184.84375 330.488281 184.59375 332.871094 183.238281 335.136719 C 182.757812 335.945312 182.015625 336.359375 181.253906 336.804688 C 179.714844 337.796875 178.0625 338.609375 176.328125 339.203125 C 173.863281 340.164062 171.300781 340.789062 168.671875 341.054688 C 166.242188 341.535156 163.8125 341.335938 161.398438 340.921875 C 159.113281 340.660156 156.898438 340.128906 154.71875 339.484375 C 148.746094 337.714844 143.242188 335.085938 138.363281 331.152344 C 134.148438 327.761719 130.710938 323.644531 127.335938 319.476562 C 123.417969 314.648438 119.730469 309.640625 116.339844 304.414062 C 115.25 302.726562 114.160156 301.058594 113.28125 299.238281 C 111.511719 296.445312 110.140625 293.453125 108.785156 290.441406 C 108.304688 289.382812 107.445312 288.65625 106.570312 287.929688 C 106.386719 287.78125 106.207031 287.832031 106.023438 287.863281 C 102.882812 288.441406 99.675781 288.375 96.5 288.640625 C 95.921875 288.691406 95.359375 288.773438 94.832031 288.988281 C 94.8125 289.039062 94.796875 289.101562 94.765625 289.136719 C 93.160156 290.195312 93.128906 291.832031 92.960938 293.535156 C 92.679688 296.660156 91.40625 299.207031 88.429688 300.808594 C 84.859375 302.726562 81.105469 303.902344 77.089844 303.96875 C 74.246094 304.019531 71.449219 303.421875 68.855469 302.132812 C 64.953125 300.199219 61.414062 297.75 58.125 294.921875 C 54.488281 291.796875 51.792969 287.914062 49.34375 283.84375 C 45.9375 278.191406 43.722656 272.039062 42.085938 265.65625 C 41.042969 261.605469 40.183594 257.503906 39.835938 253.324219 C 39.507812 249.503906 39.226562 245.648438 40.613281 241.980469 C 42.101562 238.027344 44.335938 234.703125 48.601562 233.183594 C 51.59375 232.109375 54.503906 232.40625 57.414062 233.363281 C 63.480469 235.367188 68.804688 238.671875 73.683594 242.757812 C 73.832031 242.871094 73.964844 243.019531 74.113281 243.136719 C 75.253906 244.144531 75.253906 244.144531 76.445312 243.335938 C 77.402344 242.359375 78 241.1875 78.527344 239.929688 C 79.964844 236.488281 81.851562 233.296875 83.820312 230.125 C 86.878906 225.179688 90.5 220.699219 94.550781 216.550781 C 96.234375 214.8125 97.9375 213.078125 99.839844 211.570312 C 100.054688 211.40625 100.238281 211.191406 100.632812 211.125 C 100.269531 212.367188 99.921875 213.574219 99.574219 214.761719 C 98.019531 220.152344 96.929688 225.625 96.101562 231.164062 C 95.277344 236.671875 94.78125 242.195312 94.714844 247.75 C 94.664062 252.546875 94.878906 257.324219 95.441406 262.085938 C 96.21875 268.765625 97.589844 275.296875 99.921875 281.613281 C 100.003906 281.8125 100.054688 282.027344 100.152344 282.226562 C 100.5 283.003906 101.113281 283.300781 101.808594 283.035156 C 102.484375 282.769531 102.734375 282.109375 102.4375 281.316406 C 101.59375 279.050781 100.847656 276.753906 100.238281 274.421875 C 99.179688 270.386719 98.453125 266.285156 97.921875 262.136719 C 97.441406 258.28125 97.210938 254.414062 97.195312 250.527344 C 97.160156 245.335938 97.375 240.144531 98.070312 234.96875 C 98.699219 230.339844 99.3125 225.710938 100.484375 221.195312 C 101.082031 218.898438 102.054688 216.699219 102.933594 214.480469 C 104.898438 209.523438 106.769531 204.527344 109.3125 199.816406 C 111.214844 196.3125 113.199219 192.855469 115.480469 189.566406 C 115.695312 189.117188 115.449219 188.804688 115.21875 188.457031 C 114.953125 188.078125 114.738281 187.679688 114.488281 187.300781 C 113.066406 185.5625 112.222656 183.546875 111.445312 181.480469 C 109.414062 176.1875 108.519531 170.664062 108.023438 165.042969 C 107.710938 161.339844 107.527344 157.621094 107.414062 153.914062 C 107.3125 150.839844 107.527344 147.765625 107.859375 144.707031 C 107.890625 144.359375 107.859375 144.011719 107.660156 143.761719 C 106.835938 142.769531 106.007812 141.8125 104.683594 141.398438 C 100.484375 140.078125 96.648438 137.941406 92.894531 135.679688 C 88.628906 133.097656 84.53125 130.269531 80.675781 127.097656 C 76.394531 123.574219 72.824219 119.390625 69.402344 115.058594 C 65.101562 109.636719 61.398438 103.800781 57.960938 97.796875 C 55.378906 93.265625 53.066406 88.621094 51.128906 83.777344 C 47.527344 74.730469 44.996094 65.40625 43.871094 55.714844 C 43.175781 49.730469 42.582031 43.726562 42.402344 37.691406 C 42.382812 36.980469 42.203125 36.269531 42.285156 35.558594 C 42.300781 35.496094 42.335938 35.410156 42.402344 35.246094 C 43.261719 36.054688 44.054688 36.832031 44.878906 37.578125 C 50.386719 42.570312 56.453125 46.820312 62.65625 50.871094 C 69.964844 55.648438 77.4375 60.148438 84.679688 65.023438 C 84.976562 65.222656 85.257812 65.421875 85.457031 65.800781 C 87.324219 69.355469 88 73.277344 88.992188 77.078125 C 90.21875 81.808594 91.375 86.554688 93.027344 91.148438 C 93.09375 91.347656 93.175781 91.53125 93.078125 91.777344 C 92.613281 92.953125 92.546875 94.191406 92.53125 95.433594 C 92.515625 98.242188 92.449219 101.054688 92.679688 103.847656 C 93.160156 109.453125 94.78125 114.5625 98.882812 118.648438 C 99.011719 118.78125 99.144531 118.929688 99.292969 119.042969 C 99.722656 119.390625 100.171875 119.425781 100.550781 119.011719 C 100.929688 118.613281 100.882812 118.152344 100.5 117.753906 C 99.660156 116.878906 98.863281 115.96875 98.152344 114.992188 C 96.070312 112.097656 95.113281 108.808594 94.648438 105.335938 C 94.21875 102.011719 94.269531 98.691406 94.316406 95.367188 C 94.316406 95.25 94.335938 95.117188 94.351562 94.769531 C 95.34375 97.003906 96.285156 99.003906 97.441406 100.90625 C 98.75 103.054688 100.253906 105.054688 102.054688 106.808594 C 102.386719 107.121094 102.71875 107.421875 103.214844 107.238281 C 103.890625 106.992188 104.023438 106.230469 103.410156 105.652344 C 100.371094 102.707031 98.269531 99.136719 96.582031 95.316406 C 94.382812 90.308594 92.847656 85.046875 91.507812 79.757812 C 90.5 75.738281 89.539062 71.722656 88.332031 67.753906 C 88.300781 67.71875 88.25 67.652344 88.25 67.636719 C 88.316406 67.539062 88.367188 67.605469 88.429688 67.652344 C 90.433594 68.878906 92.285156 70.300781 94.167969 71.6875 C 98.699219 75.0625 103.128906 78.550781 107.03125 82.683594 C 109.214844 85 111.183594 87.460938 112.539062 90.371094 C 112.835938 91.019531 113.082031 91.679688 113.199219 92.390625 C 113.28125 92.984375 113.578125 93.496094 114.257812 93.398438 C 114.96875 93.300781 115.085938 92.738281 114.984375 92.140625 C 114.671875 90.289062 113.792969 88.667969 112.804688 87.097656 C 110.15625 82.933594 106.667969 79.542969 102.964844 76.351562 C 94.003906 68.679688 84.082031 62.363281 74.164062 56.0625 C 67.101562 51.582031 59.976562 47.183594 53.28125 42.140625 C 50.089844 39.742188 46.996094 37.199219 44.167969 34.371094 C 43.953125 34.15625 43.691406 34.007812 43.589844 33.675781 C 43.953125 33.410156 44.382812 33.460938 44.78125 33.476562 C 53.992188 33.988281 63.21875 34.320312 72.292969 36.121094 C 77.023438 37.066406 81.652344 38.40625 86.25 39.875 C 93.210938 42.089844 100.039062 44.605469 106.800781 47.347656 C 112.109375 49.484375 117.101562 52.195312 121.898438 55.304688 C 124.292969 56.855469 126.707031 58.394531 128.824219 60.363281 C 129.484375 60.972656 129.949219 61.71875 130.511719 62.378906 C 132.046875 64.183594 132.046875 64.25 134.179688 63.453125 C 142.8125 60.195312 151.839844 58.609375 160.882812 57.136719 C 166.820312 56.179688 172.773438 55.46875 178.789062 55.617188 C 179.335938 55.582031 179.882812 55.550781 180.425781 55.535156 C 185.402344 55.367188 190.363281 55.582031 195.324219 55.683594 C 198.679688 55.832031 202.019531 56.164062 205.34375 56.660156 C 211.015625 57.484375 216.636719 58.542969 222.226562 59.765625 C 225.648438 60.511719 228.988281 61.488281 232.277344 62.695312 C 232.492188 62.777344 232.675781 62.910156 232.972656 62.742188 C 234.824219 61.703125 236.859375 61.058594 238.84375 60.296875 C 247.851562 56.875 257.078125 54.328125 266.703125 53.285156 C 273.84375 52.507812 280.988281 51.765625 288.179688 51.464844 C 291.039062 51.351562 293.902344 51.054688 296.761719 51.070312 C 299.671875 51.085938 302.597656 51.285156 305.507812 51.566406 C 313.527344 52.308594 321.429688 53.730469 329.316406 55.5 C 328.375 55.667969 327.433594 55.847656 326.472656 55.980469 C 308.730469 58.429688 292.015625 63.933594 276.457031 72.847656 C 268.902344 77.160156 261.757812 82.039062 255.375 87.992188 C 253.691406 89.578125 252.035156 91.199219 250.546875 92.984375 C 250.167969 93.433594 249.886719 93.910156 250.398438 94.441406 C 250.8125 94.871094 251.390625 94.789062 251.886719 94.207031 C 259.3125 85.710938 268.488281 79.476562 278.195312 73.9375 C 278.292969 73.886719 278.390625 73.855469 278.492188 73.820312 C 278.574219 73.722656 278.671875 73.625 278.789062 73.753906 C 278.804688 73.773438 278.691406 73.886719 278.640625 73.96875 C 274.855469 80.023438 273.152344 86.867188 271.101562 93.582031 C 269.761719 97.960938 268.703125 102.441406 266.570312 106.542969 C 265.480469 108.660156 264.207031 110.644531 262.503906 112.332031 C 262.089844 112.746094 261.757812 113.222656 262.269531 113.769531 C 262.800781 114.332031 263.328125 114.082031 263.777344 113.636719 C 265.910156 111.472656 267.480469 108.941406 268.769531 106.195312 C 269.199219 105.289062 269.578125 104.34375 270.027344 103.304688 C 270.4375 104.578125 270.472656 105.816406 270.554688 107.007812 C 270.769531 110.628906 270.785156 114.265625 269.828125 117.820312 C 269.132812 120.382812 268.042969 122.730469 265.941406 124.46875 C 265.527344 124.816406 265.460938 125.277344 265.792969 125.722656 C 266.140625 126.171875 266.585938 126.171875 267.03125 125.890625 C 267.660156 125.476562 268.15625 124.914062 268.621094 124.335938 C 270.636719 121.839844 271.597656 118.929688 272.074219 115.804688 C 272.488281 113.15625 272.605469 110.496094 272.421875 107.832031 C 272.308594 106.179688 272.140625 104.542969 271.878906 102.921875 C 271.8125 102.441406 271.578125 101.996094 271 101.980469 C 270.523438 101.980469 270.539062 101.75 270.652344 101.402344 C 272.6875 94.9375 274.324219 88.355469 276.738281 82.007812 C 277.53125 79.890625 278.390625 77.804688 279.597656 75.886719 C 280.0625 75.160156 280.574219 74.484375 281.234375 73.921875 C 281.617188 73.589844 281.878906 73.160156 281.535156 72.699219 C 281.21875 72.25 281.46875 72.167969 281.796875 72.003906 C 284.574219 70.546875 287.402344 69.191406 290.28125 67.953125 C 298.265625 64.496094 306.46875 61.75 314.980469 59.914062 C 319.511719 58.941406 324.074219 58.164062 328.671875 57.5 C 330.359375 57.253906 332.046875 57.089844 333.730469 56.789062 C 334.359375 56.675781 334.359375 56.839844 334.277344 57.351562 C 333.535156 61.667969 332.457031 65.917969 331.21875 70.117188 C 329.960938 74.367188 328.554688 78.566406 326.769531 82.632812 C 325.132812 86.320312 323.167969 89.8125 321.035156 93.21875 C 317.097656 99.484375 312.269531 105.023438 307.179688 110.332031 C 301.292969 116.449219 294.808594 121.871094 287.484375 126.1875 C 283.617188 128.46875 279.484375 130.238281 275.25 131.742188 C 270.621094 133.429688 266.023438 135.03125 261.296875 136.222656 Z M 261.296875 136.222656 " fill-opacity="1" fill-rule="nonzero"/></g><path fill="#703a44" d="M 156.652344 110.28125 C 155.921875 107.074219 154.734375 104.0625 152.367188 101.683594 C 149.574219 98.871094 146.136719 98.65625 143.027344 101.085938 C 141.472656 102.3125 140.414062 103.914062 139.605469 105.667969 C 137.539062 110.148438 137.089844 114.878906 137.753906 119.707031 C 138.230469 123.210938 139.339844 126.519531 141.65625 129.296875 C 144.449219 132.652344 148.433594 133.445312 151.871094 130.519531 C 152.78125 129.742188 153.527344 128.832031 154.15625 127.824219 C 156.402344 124.167969 157.214844 120.152344 157.230469 115.917969 C 157.230469 114.035156 157.066406 112.148438 156.652344 110.28125 Z M 144.863281 114.53125 C 142.25 114.546875 140.035156 112.347656 140 109.71875 C 139.96875 107.105469 142.183594 104.890625 144.8125 104.875 C 147.457031 104.855469 149.640625 107.039062 149.65625 109.683594 C 149.675781 112.332031 147.507812 114.53125 144.863281 114.53125 Z M 144.863281 114.53125 " fill-opacity="1" fill-rule="nonzero"/><path fill="#703a44" d="M 231.070312 101.683594 C 228.277344 98.871094 224.820312 98.65625 221.730469 101.085938 C 220.175781 102.3125 219.101562 103.898438 218.308594 105.667969 C 215.875 111.109375 215.59375 116.730469 217.015625 122.449219 C 217.726562 125.328125 218.953125 127.957031 221.066406 130.089844 C 223.847656 132.851562 227.253906 133.050781 230.359375 130.683594 C 231.386719 129.90625 232.179688 128.914062 232.839844 127.839844 C 235.089844 124.1875 235.898438 120.167969 235.914062 115.9375 C 235.914062 114.050781 235.785156 112.199219 235.371094 110.363281 C 234.625 107.121094 233.453125 104.097656 231.070312 101.683594 Z M 223.464844 114.496094 C 220.820312 114.449219 218.71875 112.296875 218.738281 109.667969 C 218.753906 107.007812 220.953125 104.839844 223.597656 104.875 C 226.261719 104.90625 228.441406 107.140625 228.375 109.769531 C 228.292969 112.480469 226.144531 114.546875 223.464844 114.496094 Z M 223.464844 114.496094 " fill-opacity="1" fill-rule="nonzero"/><path fill="#703a44" d="M 215.941406 163.539062 C 213.660156 165.390625 211.214844 166.960938 208.484375 168.035156 C 202.648438 170.316406 196.582031 171.507812 190.316406 171.675781 C 189.140625 171.707031 189.074219 171.675781 189.089844 170.515625 C 189.125 168.613281 189.207031 166.714844 189.222656 164.8125 C 189.222656 164.367188 189.390625 164.183594 189.800781 164.101562 C 190.613281 163.9375 191.371094 163.570312 192.066406 163.140625 C 196.332031 160.480469 200.152344 157.320312 203.195312 153.289062 C 203.675781 152.660156 204.070312 151.980469 204.070312 151.1875 C 204.023438 147.039062 202.796875 145.085938 199.492188 144.027344 C 191.71875 141.515625 183.933594 141.152344 176.0625 143.8125 C 172.707031 144.953125 170.722656 146.9375 170.308594 150.460938 C 170.308594 150.492188 170.292969 150.507812 170.292969 150.542969 C 170.144531 151.136719 170.257812 151.683594 170.589844 152.195312 C 172.011719 154.394531 173.5 156.5625 175.5 158.28125 C 178.34375 160.726562 181.105469 163.273438 184.925781 164.167969 C 185.320312 164.265625 185.289062 164.496094 185.289062 164.777344 C 185.273438 166.847656 185.238281 168.914062 185.273438 170.980469 C 185.273438 171.574219 185.039062 171.722656 184.496094 171.707031 C 182.957031 171.65625 181.417969 171.675781 179.882812 171.507812 C 175.269531 171.027344 170.753906 170.121094 166.375 168.566406 C 163.101562 167.390625 160.15625 165.65625 157.476562 163.441406 C 156.765625 162.859375 155.972656 162.730469 155.179688 163.140625 C 154.453125 163.507812 154.171875 164.167969 154.222656 164.992188 C 154.269531 165.921875 154.933594 166.398438 155.527344 166.894531 C 157.90625 168.894531 160.554688 170.433594 163.414062 171.65625 C 165 172.335938 166.6875 172.75 168.292969 173.410156 C 168.539062 173.441406 168.789062 173.460938 169.019531 173.527344 C 174.277344 174.882812 179.617188 175.742188 185.074219 175.609375 C 185.601562 175.59375 185.800781 175.726562 185.800781 176.289062 C 185.800781 179.113281 185.867188 181.957031 185.917969 184.785156 C 186.050781 192.195312 186.066406 199.601562 186.132812 207.007812 C 186.132812 207.273438 186.148438 207.570312 186.230469 207.820312 C 186.378906 208.296875 186.742188 208.53125 187.238281 208.511719 C 187.734375 208.496094 188.082031 208.230469 188.214844 207.769531 C 188.28125 207.503906 188.28125 207.222656 188.28125 206.960938 C 188.230469 203.851562 188.230469 200.742188 188.164062 197.632812 C 188.015625 190.589844 188.015625 183.53125 187.933594 176.484375 C 187.933594 175.808594 188.082031 175.578125 188.792969 175.609375 C 191.191406 175.726562 193.570312 175.527344 195.953125 175.210938 C 199.523438 174.75 203.03125 173.988281 206.5 173.011719 C 206.832031 172.898438 207.164062 172.765625 207.511719 172.648438 C 211.578125 171.292969 215.3125 169.34375 218.523438 166.480469 C 219.515625 165.589844 219.644531 164.398438 218.917969 163.570312 C 218.125 162.695312 217 162.695312 215.941406 163.539062 Z M 215.941406 163.539062 " fill-opacity="1" fill-rule="nonzero"/><path fill="#da828f" d="M 333.085938 246.890625 C 331.996094 245.847656 330.773438 245.152344 329.203125 245.203125 C 327.167969 245.269531 325.429688 246.542969 324.753906 248.542969 C 324.109375 250.445312 324.785156 252.546875 326.488281 253.917969 C 327.910156 255.058594 330.242188 255.175781 331.847656 254.164062 C 332.261719 253.902344 332.640625 253.585938 333.054688 253.304688 C 333.136719 251.171875 333.402344 249.039062 333.085938 246.890625 Z M 333.085938 246.890625 " fill-opacity="1" fill-rule="nonzero"/><path fill="#da828f" d="M 195.917969 175.210938 C 193.539062 175.527344 191.15625 175.726562 188.761719 175.609375 C 188.050781 175.578125 187.902344 175.808594 187.902344 176.484375 C 187.984375 183.53125 187.984375 190.589844 188.132812 197.632812 C 188.199219 200.742188 188.199219 203.851562 188.246094 206.960938 C 188.246094 207.238281 188.265625 207.519531 188.183594 207.769531 C 188.050781 208.230469 187.703125 208.511719 187.207031 208.511719 C 186.710938 208.53125 186.347656 208.28125 186.199219 207.820312 C 186.113281 207.570312 186.097656 207.273438 186.097656 207.007812 C 186.03125 199.601562 186.015625 192.195312 185.882812 184.785156 C 185.835938 181.957031 185.769531 179.113281 185.769531 176.289062 C 185.769531 175.726562 185.570312 175.59375 185.039062 175.609375 C 179.585938 175.742188 174.261719 174.882812 168.984375 173.527344 C 168.753906 173.460938 168.488281 173.441406 168.257812 173.410156 C 168.242188 173.742188 168.191406 174.070312 168.191406 174.386719 C 168.207031 177.164062 168.292969 179.941406 168.523438 182.703125 C 168.820312 186.257812 169.316406 189.796875 170.226562 193.25 C 171.480469 197.949219 173.484375 202.246094 177.21875 205.535156 C 179.070312 207.15625 181.1875 208.28125 183.636719 208.710938 C 185.503906 209.042969 187.371094 208.777344 189.238281 208.859375 C 191.324219 208.941406 193.242188 208.25 195.027344 207.222656 C 198.613281 205.171875 200.914062 201.980469 202.597656 198.3125 C 204.765625 193.597656 205.527344 188.554688 206.054688 183.480469 C 206.402344 180.007812 206.46875 176.503906 206.433594 173.011719 C 202.996094 173.988281 199.492188 174.75 195.917969 175.210938 Z M 195.917969 175.210938 " fill-opacity="1" fill-rule="nonzero"/><path fill="#da828f" d="M 75.4375 277.792969 C 69.945312 277.808594 65.597656 282.011719 65.632812 287.582031 C 65.664062 293.121094 69.914062 297.253906 75.351562 297.289062 C 80.695312 297.320312 85.15625 293.253906 85.175781 287.515625 C 85.15625 281.976562 80.726562 277.859375 75.4375 277.792969 Z M 75.4375 277.792969 " fill-opacity="1" fill-rule="nonzero"/><path fill="#da828f" d="M 60.4375 239.351562 C 57.398438 239.351562 54.75 241.945312 54.835938 245.003906 C 54.917969 248.113281 57.050781 250.628906 60.4375 250.628906 C 63.84375 250.628906 65.914062 248.097656 66.0625 245.003906 C 66.0625 241.945312 63.480469 239.351562 60.4375 239.351562 Z M 60.4375 239.351562 " fill-opacity="1" fill-rule="nonzero"/><path fill="#da828f" d="M 46.335938 245.601562 C 43.722656 245.585938 41.605469 247.734375 41.589844 250.296875 C 41.574219 252.957031 43.738281 255.175781 46.386719 255.109375 C 49.195312 255.042969 51.195312 252.761719 51.046875 250.363281 C 51.195312 247.882812 49.097656 245.617188 46.335938 245.601562 Z M 46.335938 245.601562 " fill-opacity="1" fill-rule="nonzero"/><path fill="#da828f" d="M 72.460938 259.390625 C 74.789062 259.375 76.460938 257.441406 76.328125 255.523438 C 76.511719 253.273438 74.527344 251.535156 72.507812 251.519531 C 70.308594 251.503906 68.542969 253.207031 68.523438 255.390625 C 68.523438 257.636719 70.226562 259.40625 72.460938 259.390625 Z M 72.460938 259.390625 " fill-opacity="1" fill-rule="nonzero"/><path fill="#da828f" d="M 300.316406 277.378906 C 294.660156 277.378906 290.5625 281.695312 290.460938 287.152344 C 290.363281 292.542969 294.828125 296.992188 300.234375 297.007812 C 305.691406 297.023438 310.121094 292.675781 310.085938 287.25 C 310.054688 281.777344 305.886719 277.398438 300.316406 277.378906 Z M 300.316406 277.378906 " fill-opacity="1" fill-rule="nonzero"/><path fill="#da828f" d="M 315.214844 238.96875 C 312.121094 238.988281 309.574219 241.550781 309.574219 244.675781 C 309.574219 247.832031 312.054688 250.347656 315.195312 250.363281 C 318.320312 250.378906 320.867188 247.847656 320.882812 244.722656 C 320.902344 241.550781 318.339844 238.953125 315.214844 238.96875 Z M 315.214844 238.96875 " fill-opacity="1" fill-rule="nonzero"/><path fill="#da828f" d="M 303.210938 259.125 C 305.441406 259.125 307.261719 257.324219 307.261719 255.089844 C 307.261719 252.957031 305.410156 251.15625 303.210938 251.171875 C 301.027344 251.171875 299.175781 253.007812 299.207031 255.140625 C 299.242188 257.355469 301.027344 259.125 303.210938 259.125 Z M 303.210938 259.125 " fill-opacity="1" fill-rule="nonzero"/><path fill="#fef9ea" d="M 249.273438 304.28125 C 246.382812 304.761719 243.457031 305.109375 240.546875 305.175781 C 237.488281 305.242188 234.511719 304.679688 231.996094 302.597656 C 228.804688 299.949219 226.410156 296.792969 224.96875 292.921875 C 224.390625 291.367188 224.078125 289.75 224.128906 288.078125 C 223.300781 288.921875 222.820312 290.03125 221.945312 290.839844 C 220.984375 291.734375 219.894531 291.914062 218.984375 291.238281 C 217.894531 290.425781 217.597656 289.320312 218.242188 288.128906 C 219.019531 286.707031 220.074219 285.464844 221.019531 284.160156 C 224.027344 280.007812 227.054688 275.875 230.0625 271.726562 C 231.914062 269.179688 233.714844 266.582031 235.585938 264.035156 C 236.128906 263.292969 236.957031 262.796875 237.949219 262.996094 C 238.992188 263.195312 239.867188 264.121094 239.984375 265.128906 C 240.066406 265.789062 239.703125 266.351562 239.355469 266.863281 C 237.601562 269.527344 235.699219 272.074219 233.832031 274.636719 C 232.328125 276.71875 230.808594 278.800781 229.300781 280.902344 C 229.203125 281.035156 228.921875 281.183594 229.105469 281.449219 C 233.980469 278.621094 239.207031 276.4375 243.96875 273.394531 C 245.902344 272.15625 247.636719 270.683594 249.277344 269.078125 C 253.277344 265.179688 257.128906 261.144531 260.4375 256.628906 C 261.214844 255.570312 261.90625 254.429688 262.585938 253.304688 C 264.058594 250.875 263.925781 248.378906 262.667969 245.929688 C 261.558594 243.765625 260.222656 241.78125 258.285156 240.226562 C 256.351562 238.6875 255.292969 238.6875 253.375 240.390625 C 252.070312 241.566406 250.78125 242.773438 249.472656 243.945312 C 249.144531 244.246094 248.796875 244.507812 248.414062 244.742188 C 247.804688 245.136719 247.109375 245.238281 246.464844 244.875 C 245.785156 244.492188 245.589844 243.832031 245.636719 243.105469 C 245.753906 241.617188 246.167969 240.195312 246.5625 238.773438 C 247.917969 233.828125 249.492188 228.933594 250.664062 223.941406 C 251.472656 220.535156 252.152344 217.09375 252.464844 213.589844 C 252.617188 211.96875 252.699219 210.347656 252.679688 208.746094 C 252.664062 205.949219 252.566406 203.15625 252.300781 200.363281 C 252.121094 198.34375 251.96875 196.328125 251.753906 194.308594 C 251.707031 193.765625 251.640625 193.21875 251.574219 192.671875 C 250.398438 194.011719 249.390625 195.46875 248.21875 196.824219 C 246.367188 198.972656 244.382812 200.972656 242.296875 202.890625 C 239.519531 205.4375 236.5625 207.753906 233.519531 209.953125 C 229.449219 212.894531 225.203125 215.589844 220.902344 218.1875 C 218.257812 219.789062 215.296875 220.386719 212.421875 221.246094 C 207.859375 222.617188 203.195312 223.609375 198.515625 224.570312 C 198.382812 224.601562 198.285156 224.683594 198.152344 224.734375 C 200.234375 227.5625 201.359375 230.753906 201.425781 234.242188 C 201.507812 237.976562 200.449219 241.417969 198.183594 244.410156 C 195.753906 247.632812 192.5625 249.765625 188.613281 250.757812 C 187.882812 250.941406 187.71875 250.777344 187.703125 250.046875 C 187.636719 247.734375 187.503906 245.433594 187.570312 243.121094 C 187.601562 241.945312 187.6875 240.757812 187.71875 239.582031 C 187.734375 239.234375 187.933594 239.035156 188.117188 238.804688 C 189.074219 237.515625 189.191406 236.109375 188.5625 234.671875 C 187.917969 233.199219 186.644531 232.472656 185.105469 232.390625 C 183.851562 232.324219 182.179688 233.035156 181.453125 234.621094 C 180.792969 236.078125 180.941406 237.910156 182.015625 238.902344 C 182.757812 239.597656 182.972656 240.324219 182.941406 241.300781 C 182.875 243.535156 182.941406 245.765625 182.90625 248 C 182.90625 248.839844 182.808594 249.703125 182.773438 250.542969 C 182.757812 251.125 182.394531 251.039062 182.03125 250.972656 C 179.433594 250.445312 177.039062 249.46875 174.9375 247.847656 C 171.699219 245.351562 169.5625 242.144531 168.722656 238.144531 C 167.664062 233.101562 168.769531 228.535156 171.847656 224.417969 C 168.96875 223.921875 166.09375 223.34375 163.265625 222.566406 C 162.621094 222.386719 162.042969 222.089844 161.496094 221.707031 C 160.917969 221.3125 160.339844 221.078125 159.578125 221.164062 C 158.898438 221.246094 158.289062 220.765625 157.660156 220.515625 C 151.59375 218.152344 145.9375 214.976562 140.582031 211.324219 C 137.933594 209.503906 135.421875 207.539062 133.023438 205.386719 C 132.214844 204.660156 131.46875 203.851562 130.691406 203.089844 C 130.34375 204.710938 130.460938 206.378906 130.429688 208.015625 C 130.394531 209.820312 130.511719 211.636719 130.644531 213.441406 C 130.972656 217.871094 131.949219 222.171875 133.058594 226.4375 C 134.199219 230.835938 135.539062 235.199219 136.761719 239.582031 C 137.042969 240.558594 137.257812 241.550781 137.421875 242.542969 C 137.570312 243.402344 137.539062 244.3125 136.695312 244.839844 C 135.867188 245.371094 135.058594 245.089844 134.332031 244.527344 C 133.339844 243.78125 132.429688 242.9375 131.550781 242.0625 C 130.625 241.152344 129.667969 240.292969 128.578125 239.582031 C 127.585938 238.9375 126.625 238.921875 125.667969 239.582031 C 123.285156 241.21875 121.648438 243.453125 120.410156 246.015625 C 119.894531 247.089844 119.515625 248.195312 119.433594 249.386719 C 119.300781 251.339844 120.277344 252.941406 121.234375 254.511719 C 122.953125 257.308594 125.054688 259.804688 127.253906 262.234375 C 129.121094 264.300781 131.039062 266.300781 132.992188 268.285156 C 136.679688 272.054688 141.09375 274.734375 145.753906 277.097656 C 148.765625 278.636719 151.871094 279.992188 154.667969 281.925781 C 155.824219 282.722656 156.964844 283.515625 157.792969 284.6875 C 159.132812 286.605469 159.164062 288.691406 158.703125 290.839844 C 157.941406 294.445312 156.089844 297.453125 153.660156 300.148438 C 152.054688 301.933594 150.203125 303.457031 147.9375 304.363281 C 146.664062 304.878906 145.324219 304.976562 143.984375 305.042969 C 139.953125 305.226562 135.96875 304.597656 132 303.933594 C 127.832031 303.242188 123.699219 302.332031 119.699219 300.992188 C 117.582031 300.296875 115.449219 299.71875 113.28125 299.253906 C 114.160156 301.074219 115.25 302.746094 116.339844 304.429688 C 119.730469 309.65625 123.417969 314.667969 127.335938 319.496094 C 130.710938 323.660156 134.148438 327.777344 138.363281 331.167969 C 143.257812 335.101562 148.765625 337.730469 154.71875 339.5 C 156.914062 340.144531 159.132812 340.675781 161.398438 340.941406 C 161.265625 340.3125 160.71875 340.015625 160.320312 339.632812 C 156.023438 335.433594 153.511719 330.257812 151.90625 324.570312 C 151.574219 323.414062 152.089844 322.273438 153.0625 321.628906 C 154.402344 320.75 155.988281 321.824219 156.417969 323.066406 C 156.832031 324.257812 157.148438 325.480469 157.609375 326.652344 C 158.867188 329.878906 160.554688 332.820312 162.882812 335.417969 C 164.570312 337.269531 166.488281 338.855469 168.339844 340.527344 C 168.507812 340.675781 168.671875 340.824219 168.6875 341.070312 C 171.316406 340.789062 173.878906 340.164062 176.34375 339.21875 C 176.328125 338.59375 176.261719 337.945312 176.292969 337.320312 C 176.476562 333.796875 175.234375 330.671875 173.53125 327.710938 C 172.011719 325.066406 170.359375 322.503906 168.769531 319.90625 C 167.5625 317.921875 168.671875 316.5 170.144531 316.070312 C 170.921875 315.839844 172.160156 316.304688 172.640625 317.128906 C 174.640625 320.601562 177.054688 323.84375 178.789062 327.464844 C 180.128906 330.226562 181.070312 333.101562 181.089844 336.226562 C 181.089844 336.441406 181.054688 336.675781 181.269531 336.824219 C 182.03125 336.375 182.757812 335.960938 183.253906 335.152344 C 184.609375 332.886719 184.859375 330.507812 184.3125 327.945312 C 183.222656 322.882812 181.453125 318.074219 179.054688 313.492188 C 175.683594 307.027344 171.863281 300.828125 167.496094 294.972656 C 166.472656 295.089844 166.042969 294.296875 165.5625 293.667969 C 163.429688 290.839844 161.363281 287.980469 159.265625 285.136719 C 155.328125 279.828125 151.359375 274.535156 147.757812 268.996094 C 147.359375 268.386719 146.960938 267.742188 146.648438 267.0625 C 146.070312 265.804688 146.550781 264.449219 147.757812 263.839844 C 148.847656 263.277344 150.085938 263.65625 150.796875 264.8125 C 154.601562 271.03125 159.046875 276.769531 163.363281 282.621094 C 165.511719 285.53125 167.761719 288.359375 169.730469 291.402344 C 170.042969 291.882812 170.144531 292.394531 170.175781 292.957031 C 171.117188 293.632812 172.195312 294.0625 173.25 294.527344 C 179.253906 297.140625 185.570312 298.164062 192.066406 298.046875 C 195.917969 297.984375 199.753906 297.570312 203.558594 296.941406 C 207.246094 296.347656 210.785156 295.269531 214.042969 293.371094 C 215.496094 292.507812 215.53125 292.542969 216.703125 293.832031 C 216.753906 293.898438 216.800781 293.964844 216.867188 294.015625 C 217.511719 294.511719 217.429688 295.023438 217.015625 295.667969 C 213.628906 300.925781 210.800781 306.5 208.253906 312.203125 C 206.136719 316.949219 204.566406 321.859375 203.773438 327 C 203.425781 329.300781 203.441406 331.53125 204.582031 333.632812 C 204.847656 333.285156 204.734375 332.886719 204.714844 332.523438 C 204.550781 326.621094 206.484375 321.3125 209.28125 316.238281 C 209.824219 315.246094 210.355469 314.253906 211.082031 313.394531 C 211.695312 312.664062 212.453125 312.054688 213.480469 312.269531 C 215.296875 312.617188 216.007812 314.683594 214.882812 316.285156 C 212.207031 320.039062 210.519531 324.207031 209.726562 328.738281 C 209.3125 331.070312 209.496094 333.433594 209.792969 335.78125 C 209.875 336.476562 210.121094 337.171875 209.972656 337.898438 C 212.304688 339.023438 214.753906 339.78125 217.296875 340.277344 C 218.851562 336.953125 219.382812 333.285156 220.789062 329.910156 C 221.695312 327.761719 222.589844 325.578125 224.242188 323.859375 C 225.566406 322.46875 227.78125 323.082031 228.292969 324.917969 C 228.492188 325.644531 228.210938 326.257812 227.832031 326.769531 C 225.382812 330.144531 224.324219 334.0625 223.25 337.996094 C 223.003906 338.921875 222.488281 339.765625 222.425781 340.742188 C 225.25 340.675781 227.996094 340.144531 230.707031 339.386719 C 235.238281 338.097656 239.488281 336.210938 243.355469 333.5 C 246.796875 331.101562 249.441406 327.960938 251.96875 324.6875 C 256.253906 319.148438 260.007812 313.261719 263.496094 307.191406 C 264.917969 304.746094 266.171875 302.199219 267.3125 299.601562 C 266.222656 299.785156 265.265625 300.378906 264.222656 300.726562 C 259.394531 302.363281 254.367188 303.457031 249.273438 304.28125 Z M 249.273438 304.28125 " fill-opacity="1" fill-rule="nonzero"/><path fill="#fef9ea" d="M 114.488281 187.414062 C 114.738281 187.796875 114.953125 188.191406 115.21875 188.574219 C 115.449219 188.917969 115.710938 189.234375 115.480469 189.679688 C 116.457031 192.574219 118.773438 194.242188 121.070312 195.964844 C 124.03125 198.164062 127.171875 200.0625 130.394531 201.851562 C 130.511719 201.914062 130.609375 202.015625 130.726562 202.097656 C 131.898438 202.527344 132.957031 203.171875 134.066406 203.703125 C 139.007812 206.066406 144.152344 207.902344 149.425781 209.390625 C 154.15625 210.710938 158.949219 211.722656 163.777344 212.480469 C 166.289062 212.878906 168.820312 213.144531 171.351562 213.375 C 176.675781 213.871094 182 213.9375 187.320312 213.820312 C 190.613281 213.753906 193.886719 213.554688 197.160156 213.226562 C 203.625 212.5625 209.992188 211.375 216.273438 209.71875 C 221.265625 208.398438 226.144531 206.710938 230.871094 204.609375 C 235.585938 202.511719 240.066406 200.015625 244.296875 197.070312 C 246.546875 195.5 248.746094 193.863281 250.664062 191.863281 C 250.863281 191.648438 251.042969 191.382812 251.390625 191.351562 C 252.136719 190.425781 252.878906 189.480469 253.640625 188.574219 C 253.886719 188.273438 254.003906 187.894531 254.382812 187.710938 C 254.136719 187.300781 253.886719 186.871094 253.605469 186.457031 C 253.457031 186.242188 253.390625 186.042969 253.542969 185.777344 C 255.144531 183.066406 256.070312 180.074219 256.929688 177.0625 C 257.640625 174.601562 258.152344 172.121094 258.335938 169.558594 C 257.90625 169.242188 257.824219 168.730469 257.574219 168.300781 C 257.261719 167.753906 256.964844 167.191406 256.46875 166.761719 C 255.0625 165.574219 253.65625 164.382812 252.25 163.191406 C 248.761719 160.199219 245.125 157.421875 241.355469 154.792969 C 235.867188 150.972656 230.03125 147.714844 224.175781 144.492188 C 219.664062 141.996094 215.429688 139.132812 212.058594 135.117188 C 209.808594 132.4375 207.921875 129.542969 206.402344 126.433594 C 204.632812 122.832031 203.359375 119.011719 202.335938 115.125 C 200.335938 107.617188 199.09375 99.964844 198.183594 92.257812 C 197.789062 88.96875 197.492188 85.660156 197.191406 82.371094 C 196.878906 78.847656 196.613281 75.328125 196.367188 71.789062 C 196.167969 68.828125 196.070312 65.867188 195.820312 62.910156 C 195.738281 61.867188 195.65625 60.824219 195.589844 59.800781 C 195.507812 58.460938 195.207031 57.136719 195.339844 55.800781 C 190.382812 55.699219 185.402344 55.484375 180.445312 55.648438 C 179.898438 55.667969 179.351562 55.699219 178.808594 55.734375 C 178.808594 55.898438 178.839844 56.0625 178.808594 56.230469 C 178.441406 59.054688 178.328125 61.917969 178.144531 64.761719 C 178.03125 66.480469 177.929688 68.214844 177.796875 69.9375 C 177.582031 73.160156 177.269531 76.382812 177.003906 79.609375 C 176.824219 81.859375 176.722656 84.105469 176.476562 86.339844 C 176.0625 89.925781 175.699219 93.53125 175.203125 97.101562 C 174.492188 102.261719 173.582031 107.386719 172.34375 112.445312 C 170.871094 118.449219 169.019531 124.300781 165.859375 129.660156 C 163.066406 134.386719 159.445312 138.339844 154.882812 141.433594 C 150.980469 144.0625 146.746094 146.144531 142.679688 148.507812 C 138.398438 151.003906 134.214844 153.632812 130.214844 156.542969 C 126.722656 159.089844 123.335938 161.753906 120.078125 164.582031 C 118.390625 166.050781 116.671875 167.441406 115.730469 169.640625 C 113.710938 174.386719 112.785156 179.199219 113.792969 184.324219 C 114.011719 185.332031 114.488281 186.324219 114.488281 187.414062 Z M 155.164062 163.140625 C 155.972656 162.730469 156.765625 162.859375 157.460938 163.441406 C 160.140625 165.65625 163.082031 167.390625 166.355469 168.566406 C 170.738281 170.121094 175.253906 171.027344 179.863281 171.507812 C 181.402344 171.675781 182.941406 171.640625 184.476562 171.707031 C 185.023438 171.722656 185.253906 171.589844 185.253906 170.980469 C 185.238281 168.914062 185.273438 166.847656 185.273438 164.777344 C 185.273438 164.496094 185.304688 164.25 184.90625 164.167969 C 181.105469 163.273438 178.328125 160.710938 175.484375 158.28125 C 173.484375 156.5625 171.996094 154.394531 170.574219 152.195312 C 170.242188 151.683594 170.125 151.136719 170.277344 150.542969 C 170.277344 150.507812 170.292969 150.492188 170.292969 150.460938 C 170.707031 146.9375 172.6875 144.953125 176.046875 143.8125 C 183.917969 141.152344 191.703125 141.515625 199.476562 144.027344 C 202.765625 145.085938 204.003906 147.054688 204.054688 151.1875 C 204.070312 151.980469 203.65625 152.660156 203.179688 153.289062 C 200.121094 157.320312 196.300781 160.480469 192.050781 163.140625 C 191.355469 163.570312 190.597656 163.9375 189.785156 164.101562 C 189.371094 164.183594 189.207031 164.347656 189.207031 164.8125 C 189.191406 166.714844 189.109375 168.613281 189.074219 170.515625 C 189.058594 171.675781 189.125 171.707031 190.296875 171.675781 C 196.566406 171.507812 202.632812 170.316406 208.46875 168.035156 C 211.214844 166.960938 213.644531 165.375 215.925781 163.539062 C 216.984375 162.679688 218.109375 162.695312 218.871094 163.554688 C 219.597656 164.382812 219.464844 165.574219 218.472656 166.464844 C 215.265625 169.34375 211.527344 171.292969 207.460938 172.632812 C 207.128906 172.75 206.78125 172.882812 206.453125 172.996094 C 206.484375 176.484375 206.417969 179.992188 206.070312 183.464844 C 205.558594 188.554688 204.78125 193.597656 202.617188 198.292969 C 200.929688 201.964844 198.632812 205.140625 195.042969 207.207031 C 193.257812 208.230469 191.339844 208.925781 189.257812 208.84375 C 187.386719 208.761719 185.519531 209.027344 183.652344 208.695312 C 181.1875 208.265625 179.089844 207.15625 177.234375 205.519531 C 173.5 202.230469 171.480469 197.949219 170.242188 193.234375 C 169.332031 189.78125 168.835938 186.257812 168.539062 182.6875 C 168.308594 179.910156 168.226562 177.148438 168.207031 174.371094 C 168.207031 174.039062 168.257812 173.707031 168.273438 173.394531 C 166.671875 172.730469 164.984375 172.320312 163.398438 171.640625 C 160.535156 170.417969 157.890625 168.878906 155.511719 166.878906 C 154.914062 166.367188 154.253906 165.886719 154.203125 164.976562 C 154.171875 164.167969 154.4375 163.507812 155.164062 163.140625 Z M 155.164062 163.140625 " fill-opacity="1" fill-rule="nonzero"/><path fill="#fef9ea" d="M 91.707031 272.484375 C 90.480469 268.667969 89.011719 264.929688 87.355469 261.277344 C 84.941406 255.933594 82.199219 250.777344 78.609375 246.097656 C 77.914062 245.1875 77.023438 244.425781 76.460938 243.417969 C 75.285156 244.226562 75.285156 244.226562 74.128906 243.21875 C 73.980469 243.085938 73.847656 242.957031 73.699219 242.839844 C 68.839844 238.753906 63.5 235.449219 57.429688 233.449219 C 54.519531 232.488281 51.609375 232.191406 48.617188 233.265625 C 44.351562 234.785156 42.121094 238.109375 40.632812 242.0625 C 39.242188 245.734375 39.523438 249.601562 39.855469 253.40625 C 40.21875 257.589844 41.0625 261.671875 42.101562 265.738281 C 43.738281 272.105469 45.957031 278.257812 49.363281 283.929688 C 51.808594 287.996094 54.503906 291.863281 58.140625 295.007812 C 61.429688 297.832031 64.96875 300.28125 68.871094 302.214844 C 71.46875 303.503906 74.246094 304.101562 77.105469 304.050781 C 81.125 303.984375 84.875 302.8125 88.449219 300.894531 C 91.425781 299.289062 92.699219 296.742188 92.976562 293.617188 C 93.144531 291.914062 93.175781 290.277344 94.78125 289.21875 C 94.8125 289.1875 94.832031 289.121094 94.847656 289.070312 C 94.796875 287.5 94.550781 285.960938 94.335938 284.425781 C 93.773438 280.375 92.945312 276.371094 91.707031 272.484375 Z M 46.386719 255.125 C 43.738281 255.175781 41.574219 252.976562 41.589844 250.3125 C 41.605469 247.75 43.722656 245.601562 46.335938 245.617188 C 49.097656 245.632812 51.214844 247.882812 51.03125 250.394531 C 51.195312 252.761719 49.195312 255.058594 46.386719 255.125 Z M 72.507812 251.535156 C 74.527344 251.554688 76.511719 253.289062 76.328125 255.539062 C 76.460938 257.457031 74.773438 259.375 72.460938 259.40625 C 70.226562 259.421875 68.523438 257.636719 68.542969 255.40625 C 68.542969 253.222656 70.308594 251.519531 72.507812 251.535156 Z M 60.4375 250.628906 C 57.050781 250.628906 54.917969 248.113281 54.835938 245.003906 C 54.75 241.945312 57.398438 239.351562 60.4375 239.351562 C 63.480469 239.351562 66.0625 241.945312 66.0625 245.003906 C 65.914062 248.097656 63.84375 250.628906 60.4375 250.628906 Z M 75.335938 297.289062 C 69.898438 297.253906 65.664062 293.136719 65.613281 287.582031 C 65.582031 282.011719 69.945312 277.828125 75.417969 277.792969 C 80.710938 277.84375 85.140625 281.976562 85.140625 287.5 C 85.15625 293.253906 80.675781 297.320312 75.335938 297.289062 Z M 75.335938 297.289062 " fill-opacity="1" fill-rule="nonzero"/><path fill="#fef9ea" d="M 326.472656 253.917969 C 324.769531 252.5625 324.09375 250.460938 324.738281 248.542969 C 325.414062 246.542969 327.167969 245.269531 329.183594 245.203125 C 330.773438 245.152344 331.980469 245.847656 333.070312 246.890625 C 333.054688 245.054688 332.738281 243.269531 331.960938 241.597656 C 330.855469 239.203125 329.730469 236.789062 327.464844 235.199219 C 325.234375 233.628906 322.769531 232.605469 319.992188 232.71875 C 317.429688 232.820312 315.015625 233.613281 312.667969 234.621094 C 309.246094 236.09375 306.003906 237.894531 302.945312 240.046875 C 299.851562 242.210938 297.042969 244.660156 294.960938 247.847656 C 294.378906 248.726562 293.636719 249.46875 292.910156 250.230469 C 292.347656 250.824219 291.851562 250.972656 291.238281 250.363281 C 291.15625 250.5625 291.105469 250.777344 290.992188 250.972656 C 289.207031 253.851562 287.617188 256.828125 286.195312 259.917969 C 283.300781 266.1875 280.757812 272.585938 279.382812 279.398438 C 278.738281 282.589844 278.175781 285.796875 277.996094 289.070312 C 279.316406 289.996094 279.929688 291.253906 279.78125 292.875 C 279.746094 293.253906 279.765625 293.652344 279.832031 294.03125 C 280.277344 296.675781 281.121094 299.089844 283.601562 300.5625 C 284.90625 301.339844 286.246094 302.035156 287.652344 302.597656 C 292.445312 304.480469 297.324219 304.84375 302.234375 303.109375 C 304.894531 302.164062 307.277344 300.660156 309.59375 299.074219 C 312.238281 297.253906 314.851562 295.335938 317.015625 292.941406 C 322.652344 286.6875 326.523438 279.429688 329.117188 271.460938 C 331.035156 265.558594 332.425781 259.523438 333.003906 253.339844 C 332.605469 253.621094 332.226562 253.933594 331.796875 254.199219 C 330.226562 255.175781 327.894531 255.058594 326.472656 253.917969 Z M 303.210938 251.171875 C 305.410156 251.171875 307.261719 252.957031 307.261719 255.089844 C 307.261719 257.324219 305.441406 259.125 303.210938 259.125 C 301.027344 259.125 299.257812 257.355469 299.207031 255.140625 C 299.175781 253.007812 301.027344 251.171875 303.210938 251.171875 Z M 300.234375 297.007812 C 294.828125 296.992188 290.363281 292.558594 290.460938 287.152344 C 290.5625 281.695312 294.660156 277.378906 300.316406 277.378906 C 305.871094 277.378906 310.054688 281.777344 310.085938 287.234375 C 310.121094 292.675781 305.691406 297.023438 300.234375 297.007812 Z M 315.195312 250.363281 C 312.054688 250.347656 309.574219 247.832031 309.574219 244.675781 C 309.574219 241.550781 312.105469 238.988281 315.214844 238.96875 C 318.339844 238.953125 320.902344 241.550781 320.882812 244.722656 C 320.867188 247.847656 318.339844 250.378906 315.195312 250.363281 Z M 315.195312 250.363281 " fill-opacity="1" fill-rule="nonzero"/><path fill="#fef9ea" d="M 148.847656 81.972656 C 149.839844 83.394531 150.699219 84.898438 151.210938 86.585938 C 151.375 87.117188 151.742188 87.480469 152.320312 87.3125 C 152.847656 87.148438 153.097656 86.71875 152.914062 86.140625 C 152.765625 85.660156 152.648438 85.179688 152.453125 84.734375 C 151.691406 82.898438 150.582031 81.246094 149.375 79.675781 C 148.382812 78.351562 147.390625 77.046875 146.234375 75.855469 C 145.988281 75.589844 145.671875 75.34375 145.292969 75.542969 C 144.960938 75.707031 144.714844 75.972656 144.746094 76.402344 C 144.714844 76.714844 144.878906 76.945312 145.078125 77.195312 C 146.398438 78.734375 147.691406 80.304688 148.847656 81.972656 Z M 148.847656 81.972656 " fill-opacity="1" fill-rule="nonzero"/><path fill="#fef9ea" d="M 141.027344 81.792969 C 142.234375 82.601562 143.375 83.511719 144.398438 84.550781 C 145.523438 85.695312 146.664062 86.800781 147.523438 88.15625 C 147.757812 88.519531 148.054688 88.933594 148.582031 88.753906 C 148.996094 88.605469 149.261719 88.289062 149.210938 87.792969 C 149.226562 87.5625 149.128906 87.363281 148.996094 87.183594 C 147.09375 84.4375 144.746094 82.136719 142.003906 80.269531 C 141.507812 79.941406 140.894531 79.773438 140.464844 80.386719 C 140 81.0625 140.546875 81.476562 141.027344 81.792969 Z M 141.027344 81.792969 " fill-opacity="1" fill-rule="nonzero"/><path fill="#fef9ea" d="M 222.210938 89.5625 C 222.886719 89.84375 223.21875 89.398438 223.5 88.886719 C 224.625 86.851562 226.160156 85.132812 227.765625 83.476562 C 229.105469 82.105469 230.507812 80.78125 232.230469 79.875 C 232.691406 79.625 232.808594 79.230469 232.675781 78.75 C 232.558594 78.351562 232.261719 78.1875 231.847656 78.203125 C 231.238281 78.300781 230.722656 78.617188 230.226562 78.964844 C 228.542969 80.15625 227.019531 81.558594 225.648438 83.082031 C 224.277344 84.601562 222.9375 86.171875 221.910156 87.976562 C 221.546875 88.652344 221.664062 89.332031 222.210938 89.5625 Z M 222.210938 89.5625 " fill-opacity="1" fill-rule="nonzero"/><path fill="#fef9ea" d="M 227.21875 89.25 C 226.9375 89.53125 226.839844 89.859375 227.003906 90.222656 C 227.167969 90.554688 227.46875 90.6875 227.8125 90.652344 C 228.078125 90.671875 228.308594 90.605469 228.523438 90.4375 C 230.097656 89.28125 231.816406 88.339844 233.535156 87.429688 C 234.015625 87.164062 234.394531 86.835938 234.113281 86.253906 C 233.832031 85.660156 233.335938 85.527344 232.726562 85.84375 C 231.582031 86.40625 230.476562 87.015625 229.417969 87.710938 C 228.691406 88.191406 227.863281 88.605469 227.21875 89.25 Z M 227.21875 89.25 " fill-opacity="1" fill-rule="nonzero"/><path fill="#fef9ea" d="M 144.863281 114.53125 C 147.507812 114.511719 149.675781 112.332031 149.675781 109.667969 C 149.675781 107.023438 147.476562 104.855469 144.828125 104.855469 C 142.183594 104.875 139.984375 107.089844 140.019531 109.703125 C 140.035156 112.363281 142.25 114.546875 144.863281 114.53125 Z M 144.863281 114.53125 " fill-opacity="1" fill-rule="nonzero"/><path fill="#fef9ea" d="M 223.464844 114.496094 C 226.160156 114.546875 228.308594 112.464844 228.375 109.75 C 228.441406 107.121094 226.277344 104.890625 223.597656 104.855469 C 220.9375 104.824219 218.738281 106.992188 218.738281 109.652344 C 218.71875 112.316406 220.820312 114.464844 223.464844 114.496094 Z M 223.464844 114.496094 " fill-opacity="1" fill-rule="nonzero"/></svg>